G04 (created by PCBNEW-RS274X (2011-aug-04)-testing) date Mon 24 Sep 2012 02:44:33 PM PDT*
G01*
G70*
G90*
%MOIN*%
G04 Gerber Fmt 3.4, Leading zero omitted, Abs format*
%FSLAX34Y34*%
G04 APERTURE LIST*
%ADD10C,0.006000*%
%ADD11R,0.055000X0.055000*%
%ADD12C,0.055000*%
%ADD13O,0.060000X0.100000*%
%ADD14C,0.155000*%
%ADD15C,0.060000*%
%ADD16C,0.015000*%
%ADD17C,0.010000*%
G04 APERTURE END LIST*
G54D10*
G54D11*
X27400Y-18000D03*
G54D12*
X26400Y-18000D03*
X25400Y-18000D03*
X24400Y-18000D03*
X24400Y-21000D03*
X25400Y-21000D03*
X26400Y-21000D03*
X27400Y-21000D03*
G54D11*
X17100Y-18000D03*
G54D12*
X16100Y-18000D03*
X15100Y-18000D03*
X14100Y-18000D03*
X14100Y-21000D03*
X15100Y-21000D03*
X16100Y-21000D03*
X17100Y-21000D03*
X27400Y-13300D03*
X25400Y-13300D03*
X17100Y-13300D03*
X15100Y-13300D03*
X27400Y-15500D03*
X25400Y-15500D03*
X17100Y-15500D03*
X15100Y-15500D03*
X27400Y-23400D03*
X27400Y-25400D03*
X17100Y-23400D03*
X17100Y-25400D03*
X25400Y-23400D03*
X25400Y-25400D03*
X15100Y-23400D03*
X15100Y-25400D03*
G54D13*
X31500Y-29000D03*
X30500Y-29000D03*
X29500Y-29000D03*
X26500Y-29000D03*
X27500Y-29000D03*
X28500Y-29000D03*
X24500Y-29000D03*
X23500Y-29000D03*
X22500Y-29000D03*
X20500Y-29000D03*
X19500Y-29000D03*
X31500Y-10000D03*
X30500Y-10000D03*
X29500Y-10000D03*
X28500Y-10000D03*
X27500Y-10000D03*
X26500Y-10000D03*
X25500Y-10000D03*
X24500Y-10000D03*
X22900Y-10000D03*
X21900Y-10000D03*
X20900Y-10000D03*
X19900Y-10000D03*
X18900Y-10000D03*
X17900Y-10000D03*
X16900Y-10000D03*
X15900Y-10000D03*
X21500Y-29000D03*
G54D14*
X32500Y-27000D03*
X32500Y-16000D03*
X12500Y-10000D03*
X12000Y-29000D03*
G54D15*
X36101Y-27769D03*
X36100Y-26392D03*
X36099Y-25011D03*
X36100Y-23634D03*
X36100Y-22256D03*
X36100Y-20880D03*
X36100Y-19501D03*
X36099Y-18123D03*
X36099Y-16745D03*
X36099Y-15365D03*
X36098Y-12611D03*
X36099Y-13989D03*
X36099Y-11233D03*
G54D16*
X17100Y-18000D02*
X17100Y-18453D01*
X27400Y-13300D02*
X27400Y-15500D01*
X21500Y-29000D02*
X21500Y-22698D01*
X21345Y-22698D02*
X17100Y-18453D01*
X21500Y-22698D02*
X21345Y-22698D01*
X27400Y-15500D02*
X27400Y-18000D01*
X23656Y-22698D02*
X21500Y-22698D01*
X24900Y-21454D02*
X23656Y-22698D01*
X24900Y-20859D02*
X24900Y-21454D01*
X27306Y-18453D02*
X24900Y-20859D01*
X27400Y-18453D02*
X27306Y-18453D01*
X27400Y-18000D02*
X27400Y-18453D01*
X27878Y-27944D02*
X27500Y-28322D01*
X27878Y-25128D02*
X27878Y-27944D01*
X35492Y-17514D02*
X27878Y-25128D01*
X36191Y-17514D02*
X35492Y-17514D01*
X36597Y-17920D02*
X36191Y-17514D01*
X36597Y-20383D02*
X36597Y-17920D01*
X36100Y-20880D02*
X36597Y-20383D01*
X27500Y-29000D02*
X27500Y-28322D01*
X29958Y-29678D02*
X28500Y-29678D01*
X30000Y-29636D02*
X29958Y-29678D01*
X30000Y-25601D02*
X30000Y-29636D01*
X36100Y-19501D02*
X30000Y-25601D01*
X28500Y-29000D02*
X28500Y-29678D01*
X29500Y-24722D02*
X36099Y-18123D01*
X29500Y-29000D02*
X29500Y-24722D01*
X21900Y-13500D02*
X21900Y-10000D01*
X26400Y-18000D02*
X21900Y-13500D01*
X33511Y-09322D02*
X29500Y-09322D01*
X36834Y-12645D02*
X33511Y-09322D01*
X36834Y-16010D02*
X36834Y-12645D01*
X36099Y-16745D02*
X36834Y-16010D01*
X29500Y-10000D02*
X29500Y-09322D01*
X28500Y-10000D02*
X28500Y-10678D01*
X36580Y-14884D02*
X36099Y-15365D01*
X36580Y-13770D02*
X36580Y-14884D01*
X33488Y-10678D02*
X36580Y-13770D01*
X28500Y-10678D02*
X33488Y-10678D01*
X27958Y-09322D02*
X26500Y-09322D01*
X28000Y-09364D02*
X27958Y-09322D01*
X28000Y-10896D02*
X28000Y-09364D01*
X31093Y-13989D02*
X28000Y-10896D01*
X36099Y-13989D02*
X31093Y-13989D01*
X26500Y-10000D02*
X26500Y-09322D01*
X26881Y-18519D02*
X24400Y-21000D01*
X26881Y-11297D02*
X26881Y-18519D01*
X27500Y-10678D02*
X26881Y-11297D01*
X27500Y-10000D02*
X27500Y-10678D01*
X19900Y-13500D02*
X24400Y-18000D01*
X19900Y-10000D02*
X19900Y-13500D01*
X24614Y-18786D02*
X25400Y-18000D01*
X22986Y-18786D02*
X24614Y-18786D01*
X17900Y-13700D02*
X22986Y-18786D01*
X17900Y-10000D02*
X17900Y-13700D01*
X15100Y-16500D02*
X15100Y-18000D01*
X17900Y-13700D02*
X15100Y-16500D01*
X27400Y-23400D02*
X27400Y-21000D01*
X17100Y-23400D02*
X17100Y-21000D01*
X25400Y-23400D02*
X25400Y-21000D01*
X15100Y-15500D02*
X15100Y-13300D01*
X14600Y-19500D02*
X16100Y-21000D01*
X14600Y-16000D02*
X14600Y-19500D01*
X15100Y-15500D02*
X14600Y-16000D01*
X25400Y-13300D02*
X25400Y-15500D01*
X16100Y-24900D02*
X16100Y-21000D01*
X16600Y-24900D02*
X16100Y-24900D01*
X17100Y-25400D02*
X16600Y-24900D01*
X15600Y-24900D02*
X15100Y-25400D01*
X16100Y-24900D02*
X15600Y-24900D01*
X26400Y-24400D02*
X27400Y-25400D01*
X26400Y-21000D02*
X26400Y-24400D01*
X26400Y-24400D02*
X25400Y-25400D01*
G54D10*
G36*
X21175Y-28347D02*
X21043Y-28480D01*
X21000Y-28582D01*
X20958Y-28480D01*
X20806Y-28329D01*
X20608Y-28246D01*
X20393Y-28246D01*
X20194Y-28328D01*
X20043Y-28480D01*
X20000Y-28582D01*
X19958Y-28480D01*
X19806Y-28329D01*
X19608Y-28246D01*
X19393Y-28246D01*
X19194Y-28328D01*
X19043Y-28480D01*
X18960Y-28678D01*
X18960Y-28893D01*
X18960Y-29321D01*
X19042Y-29520D01*
X19194Y-29671D01*
X19203Y-29675D01*
X17625Y-29675D01*
X17625Y-23505D01*
X17625Y-23296D01*
X17545Y-23103D01*
X17425Y-22982D01*
X17425Y-21417D01*
X17545Y-21298D01*
X17625Y-21105D01*
X17625Y-20896D01*
X17545Y-20703D01*
X17398Y-20555D01*
X17205Y-20475D01*
X16996Y-20475D01*
X16803Y-20555D01*
X16655Y-20702D01*
X16575Y-20895D01*
X16575Y-21104D01*
X16655Y-21297D01*
X16775Y-21417D01*
X16775Y-22982D01*
X16655Y-23102D01*
X16575Y-23295D01*
X16575Y-23504D01*
X16655Y-23697D01*
X16802Y-23845D01*
X16995Y-23925D01*
X17204Y-23925D01*
X17397Y-23845D01*
X17545Y-23698D01*
X17625Y-23505D01*
X17625Y-29675D01*
X17518Y-29675D01*
X17518Y-25329D01*
X17459Y-25174D01*
X17446Y-25155D01*
X17377Y-25130D01*
X17370Y-25137D01*
X17370Y-25123D01*
X17345Y-25054D01*
X17194Y-24986D01*
X17029Y-24982D01*
X16874Y-25041D01*
X16855Y-25054D01*
X16830Y-25123D01*
X17100Y-25393D01*
X17370Y-25123D01*
X17370Y-25137D01*
X17107Y-25400D01*
X17377Y-25670D01*
X17446Y-25645D01*
X17514Y-25494D01*
X17518Y-25329D01*
X17518Y-29675D01*
X17370Y-29675D01*
X17370Y-25677D01*
X17100Y-25407D01*
X17093Y-25414D01*
X17093Y-25400D01*
X16823Y-25130D01*
X16754Y-25155D01*
X16686Y-25306D01*
X16682Y-25471D01*
X16741Y-25626D01*
X16754Y-25645D01*
X16823Y-25670D01*
X17093Y-25400D01*
X17093Y-25414D01*
X16830Y-25677D01*
X16855Y-25746D01*
X17006Y-25814D01*
X17171Y-25818D01*
X17326Y-25759D01*
X17345Y-25746D01*
X17370Y-25677D01*
X17370Y-29675D01*
X16518Y-29675D01*
X16518Y-20929D01*
X16459Y-20774D01*
X16446Y-20755D01*
X16377Y-20730D01*
X16370Y-20737D01*
X16370Y-20723D01*
X16345Y-20654D01*
X16194Y-20586D01*
X16029Y-20582D01*
X15874Y-20641D01*
X15855Y-20654D01*
X15830Y-20723D01*
X16100Y-20993D01*
X16370Y-20723D01*
X16370Y-20737D01*
X16107Y-21000D01*
X16377Y-21270D01*
X16446Y-21245D01*
X16514Y-21094D01*
X16518Y-20929D01*
X16518Y-29675D01*
X16370Y-29675D01*
X16370Y-21277D01*
X16100Y-21007D01*
X16093Y-21014D01*
X16093Y-21000D01*
X15823Y-20730D01*
X15754Y-20755D01*
X15686Y-20906D01*
X15682Y-21071D01*
X15741Y-21226D01*
X15754Y-21245D01*
X15823Y-21270D01*
X16093Y-21000D01*
X16093Y-21014D01*
X15830Y-21277D01*
X15855Y-21346D01*
X16006Y-21414D01*
X16171Y-21418D01*
X16326Y-21359D01*
X16345Y-21346D01*
X16370Y-21277D01*
X16370Y-29675D01*
X15625Y-29675D01*
X15625Y-23505D01*
X15625Y-23296D01*
X15625Y-21105D01*
X15625Y-20896D01*
X15545Y-20703D01*
X15398Y-20555D01*
X15205Y-20475D01*
X14996Y-20475D01*
X14803Y-20555D01*
X14655Y-20702D01*
X14599Y-20835D01*
X14545Y-20703D01*
X14398Y-20555D01*
X14205Y-20475D01*
X13996Y-20475D01*
X13803Y-20555D01*
X13655Y-20702D01*
X13575Y-20895D01*
X13575Y-21104D01*
X13655Y-21297D01*
X13802Y-21445D01*
X13995Y-21525D01*
X14204Y-21525D01*
X14397Y-21445D01*
X14545Y-21298D01*
X14600Y-21164D01*
X14655Y-21297D01*
X14802Y-21445D01*
X14995Y-21525D01*
X15204Y-21525D01*
X15397Y-21445D01*
X15545Y-21298D01*
X15625Y-21105D01*
X15625Y-23296D01*
X15545Y-23103D01*
X15398Y-22955D01*
X15205Y-22875D01*
X14996Y-22875D01*
X14803Y-22955D01*
X14655Y-23102D01*
X14575Y-23295D01*
X14575Y-23504D01*
X14655Y-23697D01*
X14802Y-23845D01*
X14995Y-23925D01*
X15204Y-23925D01*
X15397Y-23845D01*
X15545Y-23698D01*
X15625Y-23505D01*
X15625Y-29675D01*
X15518Y-29675D01*
X15518Y-25329D01*
X15459Y-25174D01*
X15446Y-25155D01*
X15377Y-25130D01*
X15370Y-25137D01*
X15370Y-25123D01*
X15345Y-25054D01*
X15194Y-24986D01*
X15029Y-24982D01*
X14874Y-25041D01*
X14855Y-25054D01*
X14830Y-25123D01*
X15100Y-25393D01*
X15370Y-25123D01*
X15370Y-25137D01*
X15107Y-25400D01*
X15377Y-25670D01*
X15446Y-25645D01*
X15514Y-25494D01*
X15518Y-25329D01*
X15518Y-29675D01*
X15370Y-29675D01*
X15370Y-25677D01*
X15100Y-25407D01*
X15093Y-25414D01*
X15093Y-25400D01*
X14823Y-25130D01*
X14754Y-25155D01*
X14686Y-25306D01*
X14682Y-25471D01*
X14741Y-25626D01*
X14754Y-25645D01*
X14823Y-25670D01*
X15093Y-25400D01*
X15093Y-25414D01*
X14830Y-25677D01*
X14855Y-25746D01*
X15006Y-25814D01*
X15171Y-25818D01*
X15326Y-25759D01*
X15345Y-25746D01*
X15370Y-25677D01*
X15370Y-29675D01*
X12774Y-29675D01*
X12868Y-29581D01*
X13025Y-29205D01*
X13025Y-28797D01*
X12869Y-28420D01*
X12581Y-28132D01*
X12205Y-27975D01*
X11797Y-27975D01*
X11420Y-28131D01*
X11132Y-28419D01*
X10975Y-28795D01*
X10975Y-29203D01*
X11131Y-29580D01*
X11226Y-29675D01*
X10325Y-29675D01*
X10325Y-09325D01*
X11726Y-09325D01*
X11632Y-09419D01*
X11475Y-09795D01*
X11475Y-10203D01*
X11631Y-10580D01*
X11919Y-10868D01*
X12295Y-11025D01*
X12703Y-11025D01*
X13080Y-10869D01*
X13368Y-10581D01*
X13525Y-10205D01*
X13525Y-09797D01*
X13369Y-09420D01*
X13274Y-09325D01*
X15601Y-09325D01*
X15594Y-09328D01*
X15443Y-09480D01*
X15360Y-09678D01*
X15360Y-09893D01*
X15360Y-10321D01*
X15442Y-10520D01*
X15594Y-10671D01*
X15792Y-10754D01*
X16007Y-10754D01*
X16206Y-10672D01*
X16357Y-10520D01*
X16399Y-10417D01*
X16442Y-10520D01*
X16594Y-10671D01*
X16792Y-10754D01*
X17007Y-10754D01*
X17206Y-10672D01*
X17357Y-10520D01*
X17399Y-10417D01*
X17442Y-10520D01*
X17575Y-10652D01*
X17575Y-13075D01*
X17545Y-13003D01*
X17398Y-12855D01*
X17205Y-12775D01*
X16996Y-12775D01*
X16803Y-12855D01*
X16655Y-13002D01*
X16575Y-13195D01*
X16575Y-13404D01*
X16655Y-13597D01*
X16802Y-13745D01*
X16995Y-13825D01*
X17204Y-13825D01*
X17395Y-13745D01*
X15487Y-15652D01*
X15514Y-15594D01*
X15518Y-15429D01*
X15518Y-13229D01*
X15459Y-13074D01*
X15446Y-13055D01*
X15377Y-13030D01*
X15370Y-13037D01*
X15370Y-13023D01*
X15345Y-12954D01*
X15194Y-12886D01*
X15029Y-12882D01*
X14874Y-12941D01*
X14855Y-12954D01*
X14830Y-13023D01*
X15100Y-13293D01*
X15370Y-13023D01*
X15370Y-13037D01*
X15107Y-13300D01*
X15377Y-13570D01*
X15446Y-13545D01*
X15514Y-13394D01*
X15518Y-13229D01*
X15518Y-15429D01*
X15459Y-15274D01*
X15446Y-15255D01*
X15377Y-15230D01*
X15370Y-15237D01*
X15370Y-15223D01*
X15370Y-13577D01*
X15100Y-13307D01*
X15093Y-13314D01*
X15093Y-13300D01*
X14823Y-13030D01*
X14754Y-13055D01*
X14686Y-13206D01*
X14682Y-13371D01*
X14741Y-13526D01*
X14754Y-13545D01*
X14823Y-13570D01*
X15093Y-13300D01*
X15093Y-13314D01*
X14830Y-13577D01*
X14855Y-13646D01*
X15006Y-13714D01*
X15171Y-13718D01*
X15326Y-13659D01*
X15345Y-13646D01*
X15370Y-13577D01*
X15370Y-15223D01*
X15345Y-15154D01*
X15194Y-15086D01*
X15029Y-15082D01*
X14874Y-15141D01*
X14855Y-15154D01*
X14830Y-15223D01*
X15100Y-15493D01*
X15370Y-15223D01*
X15370Y-15237D01*
X15142Y-15465D01*
X15107Y-15500D01*
X15100Y-15507D01*
X15093Y-15514D01*
X15093Y-15500D01*
X14823Y-15230D01*
X14754Y-15255D01*
X14686Y-15406D01*
X14682Y-15571D01*
X14741Y-15726D01*
X14754Y-15745D01*
X14823Y-15770D01*
X15093Y-15500D01*
X15093Y-15514D01*
X15065Y-15542D01*
X14830Y-15777D01*
X14855Y-15846D01*
X15006Y-15914D01*
X15171Y-15918D01*
X15253Y-15886D01*
X14870Y-16270D01*
X14800Y-16376D01*
X14775Y-16500D01*
X14775Y-17582D01*
X14655Y-17702D01*
X14599Y-17835D01*
X14545Y-17703D01*
X14398Y-17555D01*
X14205Y-17475D01*
X13996Y-17475D01*
X13803Y-17555D01*
X13655Y-17702D01*
X13575Y-17895D01*
X13575Y-18104D01*
X13655Y-18297D01*
X13802Y-18445D01*
X13995Y-18525D01*
X14204Y-18525D01*
X14397Y-18445D01*
X14545Y-18298D01*
X14600Y-18164D01*
X14655Y-18297D01*
X14802Y-18445D01*
X14995Y-18525D01*
X15204Y-18525D01*
X15397Y-18445D01*
X15545Y-18298D01*
X15600Y-18164D01*
X15655Y-18297D01*
X15802Y-18445D01*
X15995Y-18525D01*
X16204Y-18525D01*
X16397Y-18445D01*
X16545Y-18298D01*
X16576Y-18223D01*
X16576Y-18324D01*
X16614Y-18416D01*
X16684Y-18486D01*
X16775Y-18524D01*
X16789Y-18524D01*
X16800Y-18577D01*
X16870Y-18683D01*
X21115Y-22928D01*
X21175Y-22968D01*
X21175Y-28347D01*
X21175Y-28347D01*
G37*
G54D17*
X21175Y-28347D02*
X21043Y-28480D01*
X21000Y-28582D01*
X20958Y-28480D01*
X20806Y-28329D01*
X20608Y-28246D01*
X20393Y-28246D01*
X20194Y-28328D01*
X20043Y-28480D01*
X20000Y-28582D01*
X19958Y-28480D01*
X19806Y-28329D01*
X19608Y-28246D01*
X19393Y-28246D01*
X19194Y-28328D01*
X19043Y-28480D01*
X18960Y-28678D01*
X18960Y-28893D01*
X18960Y-29321D01*
X19042Y-29520D01*
X19194Y-29671D01*
X19203Y-29675D01*
X17625Y-29675D01*
X17625Y-23505D01*
X17625Y-23296D01*
X17545Y-23103D01*
X17425Y-22982D01*
X17425Y-21417D01*
X17545Y-21298D01*
X17625Y-21105D01*
X17625Y-20896D01*
X17545Y-20703D01*
X17398Y-20555D01*
X17205Y-20475D01*
X16996Y-20475D01*
X16803Y-20555D01*
X16655Y-20702D01*
X16575Y-20895D01*
X16575Y-21104D01*
X16655Y-21297D01*
X16775Y-21417D01*
X16775Y-22982D01*
X16655Y-23102D01*
X16575Y-23295D01*
X16575Y-23504D01*
X16655Y-23697D01*
X16802Y-23845D01*
X16995Y-23925D01*
X17204Y-23925D01*
X17397Y-23845D01*
X17545Y-23698D01*
X17625Y-23505D01*
X17625Y-29675D01*
X17518Y-29675D01*
X17518Y-25329D01*
X17459Y-25174D01*
X17446Y-25155D01*
X17377Y-25130D01*
X17370Y-25137D01*
X17370Y-25123D01*
X17345Y-25054D01*
X17194Y-24986D01*
X17029Y-24982D01*
X16874Y-25041D01*
X16855Y-25054D01*
X16830Y-25123D01*
X17100Y-25393D01*
X17370Y-25123D01*
X17370Y-25137D01*
X17107Y-25400D01*
X17377Y-25670D01*
X17446Y-25645D01*
X17514Y-25494D01*
X17518Y-25329D01*
X17518Y-29675D01*
X17370Y-29675D01*
X17370Y-25677D01*
X17100Y-25407D01*
X17093Y-25414D01*
X17093Y-25400D01*
X16823Y-25130D01*
X16754Y-25155D01*
X16686Y-25306D01*
X16682Y-25471D01*
X16741Y-25626D01*
X16754Y-25645D01*
X16823Y-25670D01*
X17093Y-25400D01*
X17093Y-25414D01*
X16830Y-25677D01*
X16855Y-25746D01*
X17006Y-25814D01*
X17171Y-25818D01*
X17326Y-25759D01*
X17345Y-25746D01*
X17370Y-25677D01*
X17370Y-29675D01*
X16518Y-29675D01*
X16518Y-20929D01*
X16459Y-20774D01*
X16446Y-20755D01*
X16377Y-20730D01*
X16370Y-20737D01*
X16370Y-20723D01*
X16345Y-20654D01*
X16194Y-20586D01*
X16029Y-20582D01*
X15874Y-20641D01*
X15855Y-20654D01*
X15830Y-20723D01*
X16100Y-20993D01*
X16370Y-20723D01*
X16370Y-20737D01*
X16107Y-21000D01*
X16377Y-21270D01*
X16446Y-21245D01*
X16514Y-21094D01*
X16518Y-20929D01*
X16518Y-29675D01*
X16370Y-29675D01*
X16370Y-21277D01*
X16100Y-21007D01*
X16093Y-21014D01*
X16093Y-21000D01*
X15823Y-20730D01*
X15754Y-20755D01*
X15686Y-20906D01*
X15682Y-21071D01*
X15741Y-21226D01*
X15754Y-21245D01*
X15823Y-21270D01*
X16093Y-21000D01*
X16093Y-21014D01*
X15830Y-21277D01*
X15855Y-21346D01*
X16006Y-21414D01*
X16171Y-21418D01*
X16326Y-21359D01*
X16345Y-21346D01*
X16370Y-21277D01*
X16370Y-29675D01*
X15625Y-29675D01*
X15625Y-23505D01*
X15625Y-23296D01*
X15625Y-21105D01*
X15625Y-20896D01*
X15545Y-20703D01*
X15398Y-20555D01*
X15205Y-20475D01*
X14996Y-20475D01*
X14803Y-20555D01*
X14655Y-20702D01*
X14599Y-20835D01*
X14545Y-20703D01*
X14398Y-20555D01*
X14205Y-20475D01*
X13996Y-20475D01*
X13803Y-20555D01*
X13655Y-20702D01*
X13575Y-20895D01*
X13575Y-21104D01*
X13655Y-21297D01*
X13802Y-21445D01*
X13995Y-21525D01*
X14204Y-21525D01*
X14397Y-21445D01*
X14545Y-21298D01*
X14600Y-21164D01*
X14655Y-21297D01*
X14802Y-21445D01*
X14995Y-21525D01*
X15204Y-21525D01*
X15397Y-21445D01*
X15545Y-21298D01*
X15625Y-21105D01*
X15625Y-23296D01*
X15545Y-23103D01*
X15398Y-22955D01*
X15205Y-22875D01*
X14996Y-22875D01*
X14803Y-22955D01*
X14655Y-23102D01*
X14575Y-23295D01*
X14575Y-23504D01*
X14655Y-23697D01*
X14802Y-23845D01*
X14995Y-23925D01*
X15204Y-23925D01*
X15397Y-23845D01*
X15545Y-23698D01*
X15625Y-23505D01*
X15625Y-29675D01*
X15518Y-29675D01*
X15518Y-25329D01*
X15459Y-25174D01*
X15446Y-25155D01*
X15377Y-25130D01*
X15370Y-25137D01*
X15370Y-25123D01*
X15345Y-25054D01*
X15194Y-24986D01*
X15029Y-24982D01*
X14874Y-25041D01*
X14855Y-25054D01*
X14830Y-25123D01*
X15100Y-25393D01*
X15370Y-25123D01*
X15370Y-25137D01*
X15107Y-25400D01*
X15377Y-25670D01*
X15446Y-25645D01*
X15514Y-25494D01*
X15518Y-25329D01*
X15518Y-29675D01*
X15370Y-29675D01*
X15370Y-25677D01*
X15100Y-25407D01*
X15093Y-25414D01*
X15093Y-25400D01*
X14823Y-25130D01*
X14754Y-25155D01*
X14686Y-25306D01*
X14682Y-25471D01*
X14741Y-25626D01*
X14754Y-25645D01*
X14823Y-25670D01*
X15093Y-25400D01*
X15093Y-25414D01*
X14830Y-25677D01*
X14855Y-25746D01*
X15006Y-25814D01*
X15171Y-25818D01*
X15326Y-25759D01*
X15345Y-25746D01*
X15370Y-25677D01*
X15370Y-29675D01*
X12774Y-29675D01*
X12868Y-29581D01*
X13025Y-29205D01*
X13025Y-28797D01*
X12869Y-28420D01*
X12581Y-28132D01*
X12205Y-27975D01*
X11797Y-27975D01*
X11420Y-28131D01*
X11132Y-28419D01*
X10975Y-28795D01*
X10975Y-29203D01*
X11131Y-29580D01*
X11226Y-29675D01*
X10325Y-29675D01*
X10325Y-09325D01*
X11726Y-09325D01*
X11632Y-09419D01*
X11475Y-09795D01*
X11475Y-10203D01*
X11631Y-10580D01*
X11919Y-10868D01*
X12295Y-11025D01*
X12703Y-11025D01*
X13080Y-10869D01*
X13368Y-10581D01*
X13525Y-10205D01*
X13525Y-09797D01*
X13369Y-09420D01*
X13274Y-09325D01*
X15601Y-09325D01*
X15594Y-09328D01*
X15443Y-09480D01*
X15360Y-09678D01*
X15360Y-09893D01*
X15360Y-10321D01*
X15442Y-10520D01*
X15594Y-10671D01*
X15792Y-10754D01*
X16007Y-10754D01*
X16206Y-10672D01*
X16357Y-10520D01*
X16399Y-10417D01*
X16442Y-10520D01*
X16594Y-10671D01*
X16792Y-10754D01*
X17007Y-10754D01*
X17206Y-10672D01*
X17357Y-10520D01*
X17399Y-10417D01*
X17442Y-10520D01*
X17575Y-10652D01*
X17575Y-13075D01*
X17545Y-13003D01*
X17398Y-12855D01*
X17205Y-12775D01*
X16996Y-12775D01*
X16803Y-12855D01*
X16655Y-13002D01*
X16575Y-13195D01*
X16575Y-13404D01*
X16655Y-13597D01*
X16802Y-13745D01*
X16995Y-13825D01*
X17204Y-13825D01*
X17395Y-13745D01*
X15487Y-15652D01*
X15514Y-15594D01*
X15518Y-15429D01*
X15518Y-13229D01*
X15459Y-13074D01*
X15446Y-13055D01*
X15377Y-13030D01*
X15370Y-13037D01*
X15370Y-13023D01*
X15345Y-12954D01*
X15194Y-12886D01*
X15029Y-12882D01*
X14874Y-12941D01*
X14855Y-12954D01*
X14830Y-13023D01*
X15100Y-13293D01*
X15370Y-13023D01*
X15370Y-13037D01*
X15107Y-13300D01*
X15377Y-13570D01*
X15446Y-13545D01*
X15514Y-13394D01*
X15518Y-13229D01*
X15518Y-15429D01*
X15459Y-15274D01*
X15446Y-15255D01*
X15377Y-15230D01*
X15370Y-15237D01*
X15370Y-15223D01*
X15370Y-13577D01*
X15100Y-13307D01*
X15093Y-13314D01*
X15093Y-13300D01*
X14823Y-13030D01*
X14754Y-13055D01*
X14686Y-13206D01*
X14682Y-13371D01*
X14741Y-13526D01*
X14754Y-13545D01*
X14823Y-13570D01*
X15093Y-13300D01*
X15093Y-13314D01*
X14830Y-13577D01*
X14855Y-13646D01*
X15006Y-13714D01*
X15171Y-13718D01*
X15326Y-13659D01*
X15345Y-13646D01*
X15370Y-13577D01*
X15370Y-15223D01*
X15345Y-15154D01*
X15194Y-15086D01*
X15029Y-15082D01*
X14874Y-15141D01*
X14855Y-15154D01*
X14830Y-15223D01*
X15100Y-15493D01*
X15370Y-15223D01*
X15370Y-15237D01*
X15142Y-15465D01*
X15107Y-15500D01*
X15100Y-15507D01*
X15093Y-15514D01*
X15093Y-15500D01*
X14823Y-15230D01*
X14754Y-15255D01*
X14686Y-15406D01*
X14682Y-15571D01*
X14741Y-15726D01*
X14754Y-15745D01*
X14823Y-15770D01*
X15093Y-15500D01*
X15093Y-15514D01*
X15065Y-15542D01*
X14830Y-15777D01*
X14855Y-15846D01*
X15006Y-15914D01*
X15171Y-15918D01*
X15253Y-15886D01*
X14870Y-16270D01*
X14800Y-16376D01*
X14775Y-16500D01*
X14775Y-17582D01*
X14655Y-17702D01*
X14599Y-17835D01*
X14545Y-17703D01*
X14398Y-17555D01*
X14205Y-17475D01*
X13996Y-17475D01*
X13803Y-17555D01*
X13655Y-17702D01*
X13575Y-17895D01*
X13575Y-18104D01*
X13655Y-18297D01*
X13802Y-18445D01*
X13995Y-18525D01*
X14204Y-18525D01*
X14397Y-18445D01*
X14545Y-18298D01*
X14600Y-18164D01*
X14655Y-18297D01*
X14802Y-18445D01*
X14995Y-18525D01*
X15204Y-18525D01*
X15397Y-18445D01*
X15545Y-18298D01*
X15600Y-18164D01*
X15655Y-18297D01*
X15802Y-18445D01*
X15995Y-18525D01*
X16204Y-18525D01*
X16397Y-18445D01*
X16545Y-18298D01*
X16576Y-18223D01*
X16576Y-18324D01*
X16614Y-18416D01*
X16684Y-18486D01*
X16775Y-18524D01*
X16789Y-18524D01*
X16800Y-18577D01*
X16870Y-18683D01*
X21115Y-22928D01*
X21175Y-22968D01*
X21175Y-28347D01*
G54D10*
G36*
X27120Y-10597D02*
X26651Y-11067D01*
X26581Y-11173D01*
X26556Y-11297D01*
X26556Y-17496D01*
X26505Y-17475D01*
X26334Y-17475D01*
X25818Y-16958D01*
X25818Y-15429D01*
X25818Y-13229D01*
X25759Y-13074D01*
X25746Y-13055D01*
X25677Y-13030D01*
X25670Y-13037D01*
X25670Y-13023D01*
X25645Y-12954D01*
X25494Y-12886D01*
X25329Y-12882D01*
X25174Y-12941D01*
X25155Y-12954D01*
X25130Y-13023D01*
X25400Y-13293D01*
X25670Y-13023D01*
X25670Y-13037D01*
X25407Y-13300D01*
X25677Y-13570D01*
X25746Y-13545D01*
X25814Y-13394D01*
X25818Y-13229D01*
X25818Y-15429D01*
X25759Y-15274D01*
X25746Y-15255D01*
X25677Y-15230D01*
X25670Y-15237D01*
X25670Y-15223D01*
X25670Y-13577D01*
X25400Y-13307D01*
X25393Y-13314D01*
X25393Y-13300D01*
X25123Y-13030D01*
X25054Y-13055D01*
X24986Y-13206D01*
X24982Y-13371D01*
X25041Y-13526D01*
X25054Y-13545D01*
X25123Y-13570D01*
X25393Y-13300D01*
X25393Y-13314D01*
X25130Y-13577D01*
X25155Y-13646D01*
X25306Y-13714D01*
X25471Y-13718D01*
X25626Y-13659D01*
X25645Y-13646D01*
X25670Y-13577D01*
X25670Y-15223D01*
X25645Y-15154D01*
X25494Y-15086D01*
X25329Y-15082D01*
X25174Y-15141D01*
X25155Y-15154D01*
X25130Y-15223D01*
X25400Y-15493D01*
X25670Y-15223D01*
X25670Y-15237D01*
X25407Y-15500D01*
X25677Y-15770D01*
X25746Y-15745D01*
X25814Y-15594D01*
X25818Y-15429D01*
X25818Y-16958D01*
X25670Y-16810D01*
X25670Y-15777D01*
X25400Y-15507D01*
X25393Y-15514D01*
X25393Y-15500D01*
X25123Y-15230D01*
X25054Y-15255D01*
X24986Y-15406D01*
X24982Y-15571D01*
X25041Y-15726D01*
X25054Y-15745D01*
X25123Y-15770D01*
X25393Y-15500D01*
X25393Y-15514D01*
X25130Y-15777D01*
X25155Y-15846D01*
X25306Y-15914D01*
X25471Y-15918D01*
X25626Y-15859D01*
X25645Y-15846D01*
X25670Y-15777D01*
X25670Y-16810D01*
X22225Y-13365D01*
X22225Y-10652D01*
X22357Y-10520D01*
X22399Y-10417D01*
X22442Y-10520D01*
X22594Y-10671D01*
X22792Y-10754D01*
X23007Y-10754D01*
X23206Y-10672D01*
X23357Y-10520D01*
X23440Y-10322D01*
X23440Y-10107D01*
X23440Y-09679D01*
X23358Y-09480D01*
X23206Y-09329D01*
X23196Y-09325D01*
X24201Y-09325D01*
X24194Y-09328D01*
X24043Y-09480D01*
X23960Y-09678D01*
X23960Y-09893D01*
X23960Y-10321D01*
X24042Y-10520D01*
X24194Y-10671D01*
X24392Y-10754D01*
X24607Y-10754D01*
X24806Y-10672D01*
X24957Y-10520D01*
X24999Y-10417D01*
X25042Y-10520D01*
X25194Y-10671D01*
X25392Y-10754D01*
X25607Y-10754D01*
X25806Y-10672D01*
X25957Y-10520D01*
X25999Y-10417D01*
X26042Y-10520D01*
X26194Y-10671D01*
X26392Y-10754D01*
X26607Y-10754D01*
X26806Y-10672D01*
X26957Y-10520D01*
X26999Y-10417D01*
X27042Y-10520D01*
X27120Y-10597D01*
X27120Y-10597D01*
G37*
G54D17*
X27120Y-10597D02*
X26651Y-11067D01*
X26581Y-11173D01*
X26556Y-11297D01*
X26556Y-17496D01*
X26505Y-17475D01*
X26334Y-17475D01*
X25818Y-16958D01*
X25818Y-15429D01*
X25818Y-13229D01*
X25759Y-13074D01*
X25746Y-13055D01*
X25677Y-13030D01*
X25670Y-13037D01*
X25670Y-13023D01*
X25645Y-12954D01*
X25494Y-12886D01*
X25329Y-12882D01*
X25174Y-12941D01*
X25155Y-12954D01*
X25130Y-13023D01*
X25400Y-13293D01*
X25670Y-13023D01*
X25670Y-13037D01*
X25407Y-13300D01*
X25677Y-13570D01*
X25746Y-13545D01*
X25814Y-13394D01*
X25818Y-13229D01*
X25818Y-15429D01*
X25759Y-15274D01*
X25746Y-15255D01*
X25677Y-15230D01*
X25670Y-15237D01*
X25670Y-15223D01*
X25670Y-13577D01*
X25400Y-13307D01*
X25393Y-13314D01*
X25393Y-13300D01*
X25123Y-13030D01*
X25054Y-13055D01*
X24986Y-13206D01*
X24982Y-13371D01*
X25041Y-13526D01*
X25054Y-13545D01*
X25123Y-13570D01*
X25393Y-13300D01*
X25393Y-13314D01*
X25130Y-13577D01*
X25155Y-13646D01*
X25306Y-13714D01*
X25471Y-13718D01*
X25626Y-13659D01*
X25645Y-13646D01*
X25670Y-13577D01*
X25670Y-15223D01*
X25645Y-15154D01*
X25494Y-15086D01*
X25329Y-15082D01*
X25174Y-15141D01*
X25155Y-15154D01*
X25130Y-15223D01*
X25400Y-15493D01*
X25670Y-15223D01*
X25670Y-15237D01*
X25407Y-15500D01*
X25677Y-15770D01*
X25746Y-15745D01*
X25814Y-15594D01*
X25818Y-15429D01*
X25818Y-16958D01*
X25670Y-16810D01*
X25670Y-15777D01*
X25400Y-15507D01*
X25393Y-15514D01*
X25393Y-15500D01*
X25123Y-15230D01*
X25054Y-15255D01*
X24986Y-15406D01*
X24982Y-15571D01*
X25041Y-15726D01*
X25054Y-15745D01*
X25123Y-15770D01*
X25393Y-15500D01*
X25393Y-15514D01*
X25130Y-15777D01*
X25155Y-15846D01*
X25306Y-15914D01*
X25471Y-15918D01*
X25626Y-15859D01*
X25645Y-15846D01*
X25670Y-15777D01*
X25670Y-16810D01*
X22225Y-13365D01*
X22225Y-10652D01*
X22357Y-10520D01*
X22399Y-10417D01*
X22442Y-10520D01*
X22594Y-10671D01*
X22792Y-10754D01*
X23007Y-10754D01*
X23206Y-10672D01*
X23357Y-10520D01*
X23440Y-10322D01*
X23440Y-10107D01*
X23440Y-09679D01*
X23358Y-09480D01*
X23206Y-09329D01*
X23196Y-09325D01*
X24201Y-09325D01*
X24194Y-09328D01*
X24043Y-09480D01*
X23960Y-09678D01*
X23960Y-09893D01*
X23960Y-10321D01*
X24042Y-10520D01*
X24194Y-10671D01*
X24392Y-10754D01*
X24607Y-10754D01*
X24806Y-10672D01*
X24957Y-10520D01*
X24999Y-10417D01*
X25042Y-10520D01*
X25194Y-10671D01*
X25392Y-10754D01*
X25607Y-10754D01*
X25806Y-10672D01*
X25957Y-10520D01*
X25999Y-10417D01*
X26042Y-10520D01*
X26194Y-10671D01*
X26392Y-10754D01*
X26607Y-10754D01*
X26806Y-10672D01*
X26957Y-10520D01*
X26999Y-10417D01*
X27042Y-10520D01*
X27120Y-10597D01*
G54D10*
G36*
X36509Y-15875D02*
X36188Y-16196D01*
X35990Y-16196D01*
X35788Y-16280D01*
X35634Y-16434D01*
X35550Y-16636D01*
X35550Y-16854D01*
X35634Y-17056D01*
X35767Y-17189D01*
X35492Y-17189D01*
X35491Y-17189D01*
X35466Y-17194D01*
X35368Y-17214D01*
X35262Y-17284D01*
X35260Y-17286D01*
X33525Y-19021D01*
X33525Y-16205D01*
X33525Y-15797D01*
X33369Y-15420D01*
X33081Y-15132D01*
X32705Y-14975D01*
X32297Y-14975D01*
X31920Y-15131D01*
X31632Y-15419D01*
X31475Y-15795D01*
X31475Y-16203D01*
X31631Y-16580D01*
X31919Y-16868D01*
X32295Y-17025D01*
X32703Y-17025D01*
X33080Y-16869D01*
X33368Y-16581D01*
X33525Y-16205D01*
X33525Y-19021D01*
X27925Y-24621D01*
X27925Y-23505D01*
X27925Y-23296D01*
X27845Y-23103D01*
X27725Y-22982D01*
X27725Y-21417D01*
X27845Y-21298D01*
X27925Y-21105D01*
X27925Y-20896D01*
X27845Y-20703D01*
X27698Y-20555D01*
X27505Y-20475D01*
X27296Y-20475D01*
X27103Y-20555D01*
X26955Y-20702D01*
X26875Y-20895D01*
X26875Y-21104D01*
X26955Y-21297D01*
X27075Y-21417D01*
X27075Y-22982D01*
X26955Y-23102D01*
X26875Y-23295D01*
X26875Y-23504D01*
X26955Y-23697D01*
X27102Y-23845D01*
X27295Y-23925D01*
X27504Y-23925D01*
X27697Y-23845D01*
X27845Y-23698D01*
X27925Y-23505D01*
X27925Y-24621D01*
X27648Y-24898D01*
X27578Y-25004D01*
X27574Y-25022D01*
X27494Y-24986D01*
X27329Y-24982D01*
X27174Y-25041D01*
X27155Y-25054D01*
X27130Y-25123D01*
X27365Y-25358D01*
X27400Y-25393D01*
X27407Y-25400D01*
X27400Y-25407D01*
X27393Y-25414D01*
X27393Y-25400D01*
X27123Y-25130D01*
X27054Y-25155D01*
X26986Y-25306D01*
X26982Y-25471D01*
X27041Y-25626D01*
X27054Y-25645D01*
X27123Y-25670D01*
X27393Y-25400D01*
X27393Y-25414D01*
X27365Y-25442D01*
X27130Y-25677D01*
X27155Y-25746D01*
X27306Y-25814D01*
X27471Y-25818D01*
X27553Y-25786D01*
X27553Y-27809D01*
X27270Y-28092D01*
X27200Y-28198D01*
X27175Y-28322D01*
X27175Y-28347D01*
X27043Y-28480D01*
X27000Y-28582D01*
X26958Y-28480D01*
X26818Y-28340D01*
X26818Y-20929D01*
X26759Y-20774D01*
X26746Y-20755D01*
X26677Y-20730D01*
X26670Y-20737D01*
X26670Y-20723D01*
X26645Y-20654D01*
X26494Y-20586D01*
X26329Y-20582D01*
X26174Y-20641D01*
X26155Y-20654D01*
X26130Y-20723D01*
X26400Y-20993D01*
X26670Y-20723D01*
X26670Y-20737D01*
X26407Y-21000D01*
X26677Y-21270D01*
X26746Y-21245D01*
X26814Y-21094D01*
X26818Y-20929D01*
X26818Y-28340D01*
X26806Y-28329D01*
X26670Y-28271D01*
X26670Y-21277D01*
X26400Y-21007D01*
X26393Y-21014D01*
X26393Y-21000D01*
X26123Y-20730D01*
X26054Y-20755D01*
X25986Y-20906D01*
X25982Y-21071D01*
X26041Y-21226D01*
X26054Y-21245D01*
X26123Y-21270D01*
X26393Y-21000D01*
X26393Y-21014D01*
X26130Y-21277D01*
X26155Y-21346D01*
X26306Y-21414D01*
X26471Y-21418D01*
X26626Y-21359D01*
X26645Y-21346D01*
X26670Y-21277D01*
X26670Y-28271D01*
X26608Y-28246D01*
X26393Y-28246D01*
X26194Y-28328D01*
X26043Y-28480D01*
X25960Y-28678D01*
X25960Y-28893D01*
X25960Y-29321D01*
X26042Y-29520D01*
X26194Y-29671D01*
X26203Y-29675D01*
X25818Y-29675D01*
X25818Y-25329D01*
X25759Y-25174D01*
X25746Y-25155D01*
X25677Y-25130D01*
X25670Y-25137D01*
X25670Y-25123D01*
X25645Y-25054D01*
X25494Y-24986D01*
X25329Y-24982D01*
X25174Y-25041D01*
X25155Y-25054D01*
X25130Y-25123D01*
X25400Y-25393D01*
X25670Y-25123D01*
X25670Y-25137D01*
X25407Y-25400D01*
X25677Y-25670D01*
X25746Y-25645D01*
X25814Y-25494D01*
X25818Y-25329D01*
X25818Y-29675D01*
X25670Y-29675D01*
X25670Y-25677D01*
X25400Y-25407D01*
X25393Y-25414D01*
X25393Y-25400D01*
X25123Y-25130D01*
X25054Y-25155D01*
X24986Y-25306D01*
X24982Y-25471D01*
X25041Y-25626D01*
X25054Y-25645D01*
X25123Y-25670D01*
X25393Y-25400D01*
X25393Y-25414D01*
X25130Y-25677D01*
X25155Y-25746D01*
X25306Y-25814D01*
X25471Y-25818D01*
X25626Y-25759D01*
X25645Y-25746D01*
X25670Y-25677D01*
X25670Y-29675D01*
X24798Y-29675D01*
X24806Y-29672D01*
X24957Y-29520D01*
X25040Y-29322D01*
X25040Y-29107D01*
X25040Y-28679D01*
X24958Y-28480D01*
X24806Y-28329D01*
X24608Y-28246D01*
X24393Y-28246D01*
X24194Y-28328D01*
X24043Y-28480D01*
X24000Y-28582D01*
X23958Y-28480D01*
X23806Y-28329D01*
X23608Y-28246D01*
X23393Y-28246D01*
X23194Y-28328D01*
X23043Y-28480D01*
X22960Y-28678D01*
X22960Y-28893D01*
X22960Y-29321D01*
X23042Y-29520D01*
X23194Y-29671D01*
X23203Y-29675D01*
X22950Y-29675D01*
X22950Y-29295D01*
X22950Y-29005D01*
X22950Y-28995D01*
X22950Y-28705D01*
X22879Y-28540D01*
X22751Y-28415D01*
X22575Y-28357D01*
X22505Y-28388D01*
X22505Y-28995D01*
X22950Y-28995D01*
X22950Y-29005D01*
X22505Y-29005D01*
X22505Y-29612D01*
X22575Y-29643D01*
X22751Y-29585D01*
X22879Y-29460D01*
X22950Y-29295D01*
X22950Y-29675D01*
X22495Y-29675D01*
X22495Y-29612D01*
X22495Y-29005D01*
X22495Y-28995D01*
X22495Y-28388D01*
X22425Y-28357D01*
X22249Y-28415D01*
X22121Y-28540D01*
X22050Y-28705D01*
X22050Y-28995D01*
X22495Y-28995D01*
X22495Y-29005D01*
X22050Y-29005D01*
X22050Y-29295D01*
X22121Y-29460D01*
X22249Y-29585D01*
X22425Y-29643D01*
X22495Y-29612D01*
X22495Y-29675D01*
X21798Y-29675D01*
X21806Y-29672D01*
X21957Y-29520D01*
X22040Y-29322D01*
X22040Y-29107D01*
X22040Y-28679D01*
X21958Y-28480D01*
X21825Y-28347D01*
X21825Y-23023D01*
X23656Y-23023D01*
X23780Y-22998D01*
X23886Y-22928D01*
X25075Y-21739D01*
X25075Y-22982D01*
X24955Y-23102D01*
X24875Y-23295D01*
X24875Y-23504D01*
X24955Y-23697D01*
X25102Y-23845D01*
X25295Y-23925D01*
X25504Y-23925D01*
X25697Y-23845D01*
X25845Y-23698D01*
X25925Y-23505D01*
X25925Y-23296D01*
X25845Y-23103D01*
X25725Y-22982D01*
X25725Y-21417D01*
X25845Y-21298D01*
X25925Y-21105D01*
X25925Y-20896D01*
X25845Y-20703D01*
X25698Y-20555D01*
X25673Y-20544D01*
X27450Y-18767D01*
X27524Y-18753D01*
X27630Y-18683D01*
X27700Y-18577D01*
X27710Y-18524D01*
X27724Y-18524D01*
X27816Y-18486D01*
X27886Y-18416D01*
X27924Y-18325D01*
X27924Y-18226D01*
X27924Y-17676D01*
X27886Y-17584D01*
X27816Y-17514D01*
X27725Y-17476D01*
X27725Y-15917D01*
X27845Y-15798D01*
X27925Y-15605D01*
X27925Y-15396D01*
X27845Y-15203D01*
X27725Y-15082D01*
X27725Y-13717D01*
X27845Y-13598D01*
X27925Y-13405D01*
X27925Y-13196D01*
X27845Y-13003D01*
X27698Y-12855D01*
X27505Y-12775D01*
X27296Y-12775D01*
X27206Y-12812D01*
X27206Y-11432D01*
X27686Y-10951D01*
X27700Y-11020D01*
X27770Y-11126D01*
X30863Y-14219D01*
X30968Y-14289D01*
X30969Y-14289D01*
X31093Y-14314D01*
X35648Y-14314D01*
X35788Y-14454D01*
X35990Y-14538D01*
X36208Y-14538D01*
X36255Y-14518D01*
X36255Y-14749D01*
X36188Y-14816D01*
X35990Y-14816D01*
X35788Y-14900D01*
X35634Y-15054D01*
X35550Y-15256D01*
X35550Y-15474D01*
X35634Y-15676D01*
X35788Y-15830D01*
X35990Y-15914D01*
X36208Y-15914D01*
X36410Y-15830D01*
X36509Y-15731D01*
X36509Y-15875D01*
X36509Y-15875D01*
G37*
G54D17*
X36509Y-15875D02*
X36188Y-16196D01*
X35990Y-16196D01*
X35788Y-16280D01*
X35634Y-16434D01*
X35550Y-16636D01*
X35550Y-16854D01*
X35634Y-17056D01*
X35767Y-17189D01*
X35492Y-17189D01*
X35491Y-17189D01*
X35466Y-17194D01*
X35368Y-17214D01*
X35262Y-17284D01*
X35260Y-17286D01*
X33525Y-19021D01*
X33525Y-16205D01*
X33525Y-15797D01*
X33369Y-15420D01*
X33081Y-15132D01*
X32705Y-14975D01*
X32297Y-14975D01*
X31920Y-15131D01*
X31632Y-15419D01*
X31475Y-15795D01*
X31475Y-16203D01*
X31631Y-16580D01*
X31919Y-16868D01*
X32295Y-17025D01*
X32703Y-17025D01*
X33080Y-16869D01*
X33368Y-16581D01*
X33525Y-16205D01*
X33525Y-19021D01*
X27925Y-24621D01*
X27925Y-23505D01*
X27925Y-23296D01*
X27845Y-23103D01*
X27725Y-22982D01*
X27725Y-21417D01*
X27845Y-21298D01*
X27925Y-21105D01*
X27925Y-20896D01*
X27845Y-20703D01*
X27698Y-20555D01*
X27505Y-20475D01*
X27296Y-20475D01*
X27103Y-20555D01*
X26955Y-20702D01*
X26875Y-20895D01*
X26875Y-21104D01*
X26955Y-21297D01*
X27075Y-21417D01*
X27075Y-22982D01*
X26955Y-23102D01*
X26875Y-23295D01*
X26875Y-23504D01*
X26955Y-23697D01*
X27102Y-23845D01*
X27295Y-23925D01*
X27504Y-23925D01*
X27697Y-23845D01*
X27845Y-23698D01*
X27925Y-23505D01*
X27925Y-24621D01*
X27648Y-24898D01*
X27578Y-25004D01*
X27574Y-25022D01*
X27494Y-24986D01*
X27329Y-24982D01*
X27174Y-25041D01*
X27155Y-25054D01*
X27130Y-25123D01*
X27365Y-25358D01*
X27400Y-25393D01*
X27407Y-25400D01*
X27400Y-25407D01*
X27393Y-25414D01*
X27393Y-25400D01*
X27123Y-25130D01*
X27054Y-25155D01*
X26986Y-25306D01*
X26982Y-25471D01*
X27041Y-25626D01*
X27054Y-25645D01*
X27123Y-25670D01*
X27393Y-25400D01*
X27393Y-25414D01*
X27365Y-25442D01*
X27130Y-25677D01*
X27155Y-25746D01*
X27306Y-25814D01*
X27471Y-25818D01*
X27553Y-25786D01*
X27553Y-27809D01*
X27270Y-28092D01*
X27200Y-28198D01*
X27175Y-28322D01*
X27175Y-28347D01*
X27043Y-28480D01*
X27000Y-28582D01*
X26958Y-28480D01*
X26818Y-28340D01*
X26818Y-20929D01*
X26759Y-20774D01*
X26746Y-20755D01*
X26677Y-20730D01*
X26670Y-20737D01*
X26670Y-20723D01*
X26645Y-20654D01*
X26494Y-20586D01*
X26329Y-20582D01*
X26174Y-20641D01*
X26155Y-20654D01*
X26130Y-20723D01*
X26400Y-20993D01*
X26670Y-20723D01*
X26670Y-20737D01*
X26407Y-21000D01*
X26677Y-21270D01*
X26746Y-21245D01*
X26814Y-21094D01*
X26818Y-20929D01*
X26818Y-28340D01*
X26806Y-28329D01*
X26670Y-28271D01*
X26670Y-21277D01*
X26400Y-21007D01*
X26393Y-21014D01*
X26393Y-21000D01*
X26123Y-20730D01*
X26054Y-20755D01*
X25986Y-20906D01*
X25982Y-21071D01*
X26041Y-21226D01*
X26054Y-21245D01*
X26123Y-21270D01*
X26393Y-21000D01*
X26393Y-21014D01*
X26130Y-21277D01*
X26155Y-21346D01*
X26306Y-21414D01*
X26471Y-21418D01*
X26626Y-21359D01*
X26645Y-21346D01*
X26670Y-21277D01*
X26670Y-28271D01*
X26608Y-28246D01*
X26393Y-28246D01*
X26194Y-28328D01*
X26043Y-28480D01*
X25960Y-28678D01*
X25960Y-28893D01*
X25960Y-29321D01*
X26042Y-29520D01*
X26194Y-29671D01*
X26203Y-29675D01*
X25818Y-29675D01*
X25818Y-25329D01*
X25759Y-25174D01*
X25746Y-25155D01*
X25677Y-25130D01*
X25670Y-25137D01*
X25670Y-25123D01*
X25645Y-25054D01*
X25494Y-24986D01*
X25329Y-24982D01*
X25174Y-25041D01*
X25155Y-25054D01*
X25130Y-25123D01*
X25400Y-25393D01*
X25670Y-25123D01*
X25670Y-25137D01*
X25407Y-25400D01*
X25677Y-25670D01*
X25746Y-25645D01*
X25814Y-25494D01*
X25818Y-25329D01*
X25818Y-29675D01*
X25670Y-29675D01*
X25670Y-25677D01*
X25400Y-25407D01*
X25393Y-25414D01*
X25393Y-25400D01*
X25123Y-25130D01*
X25054Y-25155D01*
X24986Y-25306D01*
X24982Y-25471D01*
X25041Y-25626D01*
X25054Y-25645D01*
X25123Y-25670D01*
X25393Y-25400D01*
X25393Y-25414D01*
X25130Y-25677D01*
X25155Y-25746D01*
X25306Y-25814D01*
X25471Y-25818D01*
X25626Y-25759D01*
X25645Y-25746D01*
X25670Y-25677D01*
X25670Y-29675D01*
X24798Y-29675D01*
X24806Y-29672D01*
X24957Y-29520D01*
X25040Y-29322D01*
X25040Y-29107D01*
X25040Y-28679D01*
X24958Y-28480D01*
X24806Y-28329D01*
X24608Y-28246D01*
X24393Y-28246D01*
X24194Y-28328D01*
X24043Y-28480D01*
X24000Y-28582D01*
X23958Y-28480D01*
X23806Y-28329D01*
X23608Y-28246D01*
X23393Y-28246D01*
X23194Y-28328D01*
X23043Y-28480D01*
X22960Y-28678D01*
X22960Y-28893D01*
X22960Y-29321D01*
X23042Y-29520D01*
X23194Y-29671D01*
X23203Y-29675D01*
X22950Y-29675D01*
X22950Y-29295D01*
X22950Y-29005D01*
X22950Y-28995D01*
X22950Y-28705D01*
X22879Y-28540D01*
X22751Y-28415D01*
X22575Y-28357D01*
X22505Y-28388D01*
X22505Y-28995D01*
X22950Y-28995D01*
X22950Y-29005D01*
X22505Y-29005D01*
X22505Y-29612D01*
X22575Y-29643D01*
X22751Y-29585D01*
X22879Y-29460D01*
X22950Y-29295D01*
X22950Y-29675D01*
X22495Y-29675D01*
X22495Y-29612D01*
X22495Y-29005D01*
X22495Y-28995D01*
X22495Y-28388D01*
X22425Y-28357D01*
X22249Y-28415D01*
X22121Y-28540D01*
X22050Y-28705D01*
X22050Y-28995D01*
X22495Y-28995D01*
X22495Y-29005D01*
X22050Y-29005D01*
X22050Y-29295D01*
X22121Y-29460D01*
X22249Y-29585D01*
X22425Y-29643D01*
X22495Y-29612D01*
X22495Y-29675D01*
X21798Y-29675D01*
X21806Y-29672D01*
X21957Y-29520D01*
X22040Y-29322D01*
X22040Y-29107D01*
X22040Y-28679D01*
X21958Y-28480D01*
X21825Y-28347D01*
X21825Y-23023D01*
X23656Y-23023D01*
X23780Y-22998D01*
X23886Y-22928D01*
X25075Y-21739D01*
X25075Y-22982D01*
X24955Y-23102D01*
X24875Y-23295D01*
X24875Y-23504D01*
X24955Y-23697D01*
X25102Y-23845D01*
X25295Y-23925D01*
X25504Y-23925D01*
X25697Y-23845D01*
X25845Y-23698D01*
X25925Y-23505D01*
X25925Y-23296D01*
X25845Y-23103D01*
X25725Y-22982D01*
X25725Y-21417D01*
X25845Y-21298D01*
X25925Y-21105D01*
X25925Y-20896D01*
X25845Y-20703D01*
X25698Y-20555D01*
X25673Y-20544D01*
X27450Y-18767D01*
X27524Y-18753D01*
X27630Y-18683D01*
X27700Y-18577D01*
X27710Y-18524D01*
X27724Y-18524D01*
X27816Y-18486D01*
X27886Y-18416D01*
X27924Y-18325D01*
X27924Y-18226D01*
X27924Y-17676D01*
X27886Y-17584D01*
X27816Y-17514D01*
X27725Y-17476D01*
X27725Y-15917D01*
X27845Y-15798D01*
X27925Y-15605D01*
X27925Y-15396D01*
X27845Y-15203D01*
X27725Y-15082D01*
X27725Y-13717D01*
X27845Y-13598D01*
X27925Y-13405D01*
X27925Y-13196D01*
X27845Y-13003D01*
X27698Y-12855D01*
X27505Y-12775D01*
X27296Y-12775D01*
X27206Y-12812D01*
X27206Y-11432D01*
X27686Y-10951D01*
X27700Y-11020D01*
X27770Y-11126D01*
X30863Y-14219D01*
X30968Y-14289D01*
X30969Y-14289D01*
X31093Y-14314D01*
X35648Y-14314D01*
X35788Y-14454D01*
X35990Y-14538D01*
X36208Y-14538D01*
X36255Y-14518D01*
X36255Y-14749D01*
X36188Y-14816D01*
X35990Y-14816D01*
X35788Y-14900D01*
X35634Y-15054D01*
X35550Y-15256D01*
X35550Y-15474D01*
X35634Y-15676D01*
X35788Y-15830D01*
X35990Y-15914D01*
X36208Y-15914D01*
X36410Y-15830D01*
X36509Y-15731D01*
X36509Y-15875D01*
G54D10*
G36*
X37175Y-29675D02*
X36650Y-29675D01*
X36650Y-27878D01*
X36650Y-27660D01*
X36649Y-27657D01*
X36649Y-26501D01*
X36649Y-26283D01*
X36649Y-23743D01*
X36649Y-23525D01*
X36649Y-22365D01*
X36649Y-22147D01*
X36565Y-21945D01*
X36411Y-21791D01*
X36209Y-21707D01*
X35991Y-21707D01*
X35789Y-21791D01*
X35635Y-21945D01*
X35551Y-22147D01*
X35551Y-22365D01*
X35635Y-22567D01*
X35789Y-22721D01*
X35991Y-22805D01*
X36209Y-22805D01*
X36411Y-22721D01*
X36565Y-22567D01*
X36649Y-22365D01*
X36649Y-23525D01*
X36565Y-23323D01*
X36411Y-23169D01*
X36209Y-23085D01*
X35991Y-23085D01*
X35789Y-23169D01*
X35635Y-23323D01*
X35551Y-23525D01*
X35551Y-23743D01*
X35635Y-23945D01*
X35789Y-24099D01*
X35991Y-24183D01*
X36209Y-24183D01*
X36411Y-24099D01*
X36565Y-23945D01*
X36649Y-23743D01*
X36649Y-26283D01*
X36648Y-26280D01*
X36648Y-25120D01*
X36648Y-24902D01*
X36564Y-24700D01*
X36410Y-24546D01*
X36208Y-24462D01*
X35990Y-24462D01*
X35788Y-24546D01*
X35634Y-24700D01*
X35550Y-24902D01*
X35550Y-25120D01*
X35634Y-25322D01*
X35788Y-25476D01*
X35990Y-25560D01*
X36208Y-25560D01*
X36410Y-25476D01*
X36564Y-25322D01*
X36648Y-25120D01*
X36648Y-26280D01*
X36565Y-26081D01*
X36411Y-25927D01*
X36209Y-25843D01*
X35991Y-25843D01*
X35789Y-25927D01*
X35635Y-26081D01*
X35551Y-26283D01*
X35551Y-26501D01*
X35635Y-26703D01*
X35789Y-26857D01*
X35991Y-26941D01*
X36209Y-26941D01*
X36411Y-26857D01*
X36565Y-26703D01*
X36649Y-26501D01*
X36649Y-27657D01*
X36566Y-27458D01*
X36412Y-27304D01*
X36210Y-27220D01*
X35992Y-27220D01*
X35790Y-27304D01*
X35636Y-27458D01*
X35552Y-27660D01*
X35552Y-27878D01*
X35636Y-28080D01*
X35790Y-28234D01*
X35992Y-28318D01*
X36210Y-28318D01*
X36412Y-28234D01*
X36566Y-28080D01*
X36650Y-27878D01*
X36650Y-29675D01*
X33525Y-29675D01*
X33525Y-27205D01*
X33525Y-26797D01*
X33369Y-26420D01*
X33081Y-26132D01*
X32705Y-25975D01*
X32297Y-25975D01*
X31920Y-26131D01*
X31632Y-26419D01*
X31475Y-26795D01*
X31475Y-27203D01*
X31631Y-27580D01*
X31919Y-27868D01*
X32295Y-28025D01*
X32703Y-28025D01*
X33080Y-27869D01*
X33368Y-27581D01*
X33525Y-27205D01*
X33525Y-29675D01*
X31798Y-29675D01*
X31806Y-29672D01*
X31957Y-29520D01*
X32040Y-29322D01*
X32040Y-29107D01*
X32040Y-28679D01*
X31958Y-28480D01*
X31806Y-28329D01*
X31608Y-28246D01*
X31393Y-28246D01*
X31194Y-28328D01*
X31043Y-28480D01*
X31000Y-28582D01*
X30958Y-28480D01*
X30806Y-28329D01*
X30608Y-28246D01*
X30393Y-28246D01*
X30325Y-28274D01*
X30325Y-25735D01*
X36010Y-20050D01*
X36209Y-20050D01*
X36272Y-20023D01*
X36272Y-20248D01*
X36189Y-20331D01*
X35991Y-20331D01*
X35789Y-20415D01*
X35635Y-20569D01*
X35551Y-20771D01*
X35551Y-20989D01*
X35635Y-21191D01*
X35789Y-21345D01*
X35991Y-21429D01*
X36209Y-21429D01*
X36411Y-21345D01*
X36565Y-21191D01*
X36649Y-20989D01*
X36649Y-20790D01*
X36824Y-20614D01*
X36826Y-20613D01*
X36827Y-20613D01*
X36896Y-20508D01*
X36897Y-20507D01*
X36916Y-20409D01*
X36922Y-20384D01*
X36921Y-20383D01*
X36922Y-20383D01*
X36922Y-17920D01*
X36897Y-17796D01*
X36897Y-17795D01*
X36827Y-17690D01*
X36421Y-17284D01*
X36347Y-17235D01*
X36410Y-17210D01*
X36564Y-17056D01*
X36648Y-16854D01*
X36648Y-16655D01*
X37061Y-16241D01*
X37063Y-16240D01*
X37064Y-16240D01*
X37133Y-16135D01*
X37134Y-16134D01*
X37159Y-16010D01*
X37159Y-12645D01*
X37134Y-12521D01*
X37134Y-12520D01*
X37064Y-12415D01*
X36543Y-11894D01*
X36543Y-11158D01*
X36481Y-10994D01*
X36465Y-10973D01*
X36394Y-10945D01*
X36387Y-10952D01*
X36387Y-10938D01*
X36359Y-10867D01*
X36199Y-10795D01*
X36024Y-10789D01*
X35860Y-10851D01*
X35839Y-10867D01*
X35811Y-10938D01*
X36099Y-11226D01*
X36387Y-10938D01*
X36387Y-10952D01*
X36106Y-11233D01*
X36394Y-11521D01*
X36465Y-11493D01*
X36537Y-11333D01*
X36543Y-11158D01*
X36543Y-11894D01*
X36284Y-11635D01*
X36338Y-11615D01*
X36359Y-11599D01*
X36387Y-11528D01*
X36134Y-11275D01*
X36099Y-11240D01*
X36092Y-11233D01*
X36057Y-11198D01*
X35804Y-10945D01*
X35733Y-10973D01*
X35698Y-11049D01*
X33974Y-09325D01*
X37175Y-09325D01*
X37175Y-29675D01*
X37175Y-29675D01*
G37*
G54D17*
X37175Y-29675D02*
X36650Y-29675D01*
X36650Y-27878D01*
X36650Y-27660D01*
X36649Y-27657D01*
X36649Y-26501D01*
X36649Y-26283D01*
X36649Y-23743D01*
X36649Y-23525D01*
X36649Y-22365D01*
X36649Y-22147D01*
X36565Y-21945D01*
X36411Y-21791D01*
X36209Y-21707D01*
X35991Y-21707D01*
X35789Y-21791D01*
X35635Y-21945D01*
X35551Y-22147D01*
X35551Y-22365D01*
X35635Y-22567D01*
X35789Y-22721D01*
X35991Y-22805D01*
X36209Y-22805D01*
X36411Y-22721D01*
X36565Y-22567D01*
X36649Y-22365D01*
X36649Y-23525D01*
X36565Y-23323D01*
X36411Y-23169D01*
X36209Y-23085D01*
X35991Y-23085D01*
X35789Y-23169D01*
X35635Y-23323D01*
X35551Y-23525D01*
X35551Y-23743D01*
X35635Y-23945D01*
X35789Y-24099D01*
X35991Y-24183D01*
X36209Y-24183D01*
X36411Y-24099D01*
X36565Y-23945D01*
X36649Y-23743D01*
X36649Y-26283D01*
X36648Y-26280D01*
X36648Y-25120D01*
X36648Y-24902D01*
X36564Y-24700D01*
X36410Y-24546D01*
X36208Y-24462D01*
X35990Y-24462D01*
X35788Y-24546D01*
X35634Y-24700D01*
X35550Y-24902D01*
X35550Y-25120D01*
X35634Y-25322D01*
X35788Y-25476D01*
X35990Y-25560D01*
X36208Y-25560D01*
X36410Y-25476D01*
X36564Y-25322D01*
X36648Y-25120D01*
X36648Y-26280D01*
X36565Y-26081D01*
X36411Y-25927D01*
X36209Y-25843D01*
X35991Y-25843D01*
X35789Y-25927D01*
X35635Y-26081D01*
X35551Y-26283D01*
X35551Y-26501D01*
X35635Y-26703D01*
X35789Y-26857D01*
X35991Y-26941D01*
X36209Y-26941D01*
X36411Y-26857D01*
X36565Y-26703D01*
X36649Y-26501D01*
X36649Y-27657D01*
X36566Y-27458D01*
X36412Y-27304D01*
X36210Y-27220D01*
X35992Y-27220D01*
X35790Y-27304D01*
X35636Y-27458D01*
X35552Y-27660D01*
X35552Y-27878D01*
X35636Y-28080D01*
X35790Y-28234D01*
X35992Y-28318D01*
X36210Y-28318D01*
X36412Y-28234D01*
X36566Y-28080D01*
X36650Y-27878D01*
X36650Y-29675D01*
X33525Y-29675D01*
X33525Y-27205D01*
X33525Y-26797D01*
X33369Y-26420D01*
X33081Y-26132D01*
X32705Y-25975D01*
X32297Y-25975D01*
X31920Y-26131D01*
X31632Y-26419D01*
X31475Y-26795D01*
X31475Y-27203D01*
X31631Y-27580D01*
X31919Y-27868D01*
X32295Y-28025D01*
X32703Y-28025D01*
X33080Y-27869D01*
X33368Y-27581D01*
X33525Y-27205D01*
X33525Y-29675D01*
X31798Y-29675D01*
X31806Y-29672D01*
X31957Y-29520D01*
X32040Y-29322D01*
X32040Y-29107D01*
X32040Y-28679D01*
X31958Y-28480D01*
X31806Y-28329D01*
X31608Y-28246D01*
X31393Y-28246D01*
X31194Y-28328D01*
X31043Y-28480D01*
X31000Y-28582D01*
X30958Y-28480D01*
X30806Y-28329D01*
X30608Y-28246D01*
X30393Y-28246D01*
X30325Y-28274D01*
X30325Y-25735D01*
X36010Y-20050D01*
X36209Y-20050D01*
X36272Y-20023D01*
X36272Y-20248D01*
X36189Y-20331D01*
X35991Y-20331D01*
X35789Y-20415D01*
X35635Y-20569D01*
X35551Y-20771D01*
X35551Y-20989D01*
X35635Y-21191D01*
X35789Y-21345D01*
X35991Y-21429D01*
X36209Y-21429D01*
X36411Y-21345D01*
X36565Y-21191D01*
X36649Y-20989D01*
X36649Y-20790D01*
X36824Y-20614D01*
X36826Y-20613D01*
X36827Y-20613D01*
X36896Y-20508D01*
X36897Y-20507D01*
X36916Y-20409D01*
X36922Y-20384D01*
X36921Y-20383D01*
X36922Y-20383D01*
X36922Y-17920D01*
X36897Y-17796D01*
X36897Y-17795D01*
X36827Y-17690D01*
X36421Y-17284D01*
X36347Y-17235D01*
X36410Y-17210D01*
X36564Y-17056D01*
X36648Y-16854D01*
X36648Y-16655D01*
X37061Y-16241D01*
X37063Y-16240D01*
X37064Y-16240D01*
X37133Y-16135D01*
X37134Y-16134D01*
X37159Y-16010D01*
X37159Y-12645D01*
X37134Y-12521D01*
X37134Y-12520D01*
X37064Y-12415D01*
X36543Y-11894D01*
X36543Y-11158D01*
X36481Y-10994D01*
X36465Y-10973D01*
X36394Y-10945D01*
X36387Y-10952D01*
X36387Y-10938D01*
X36359Y-10867D01*
X36199Y-10795D01*
X36024Y-10789D01*
X35860Y-10851D01*
X35839Y-10867D01*
X35811Y-10938D01*
X36099Y-11226D01*
X36387Y-10938D01*
X36387Y-10952D01*
X36106Y-11233D01*
X36394Y-11521D01*
X36465Y-11493D01*
X36537Y-11333D01*
X36543Y-11158D01*
X36543Y-11894D01*
X36284Y-11635D01*
X36338Y-11615D01*
X36359Y-11599D01*
X36387Y-11528D01*
X36134Y-11275D01*
X36099Y-11240D01*
X36092Y-11233D01*
X36057Y-11198D01*
X35804Y-10945D01*
X35733Y-10973D01*
X35698Y-11049D01*
X33974Y-09325D01*
X37175Y-09325D01*
X37175Y-29675D01*
M02*
