G04 (created by PCBNEW-RS274X (2011-aug-04)-testing) date Sun 23 Sep 2012 05:59:23 PM PDT*
G01*
G70*
G90*
%MOIN*%
G04 Gerber Fmt 3.4, Leading zero omitted, Abs format*
%FSLAX34Y34*%
G04 APERTURE LIST*
%ADD10C,0.006000*%
%ADD11C,0.012000*%
%ADD12C,0.008000*%
%ADD13C,0.010000*%
%ADD14C,0.015000*%
G04 APERTURE END LIST*
G54D10*
G54D11*
X11424Y-26285D02*
X10624Y-26285D01*
X11195Y-26085D01*
X10624Y-25885D01*
X11424Y-25885D01*
X11348Y-25256D02*
X11386Y-25285D01*
X11424Y-25371D01*
X11424Y-25428D01*
X11386Y-25513D01*
X11310Y-25571D01*
X11233Y-25599D01*
X11081Y-25628D01*
X10967Y-25628D01*
X10814Y-25599D01*
X10738Y-25571D01*
X10662Y-25513D01*
X10624Y-25428D01*
X10624Y-25371D01*
X10662Y-25285D01*
X10700Y-25256D01*
X11424Y-24999D02*
X10624Y-24999D01*
X10624Y-24771D01*
X10662Y-24713D01*
X10700Y-24685D01*
X10776Y-24656D01*
X10890Y-24656D01*
X10967Y-24685D01*
X11005Y-24713D01*
X11043Y-24771D01*
X11043Y-24999D01*
X10890Y-24142D02*
X11424Y-24142D01*
X10586Y-24285D02*
X11157Y-24428D01*
X11157Y-24056D01*
X10967Y-23742D02*
X10929Y-23800D01*
X10890Y-23828D01*
X10814Y-23857D01*
X10776Y-23857D01*
X10700Y-23828D01*
X10662Y-23800D01*
X10624Y-23742D01*
X10624Y-23628D01*
X10662Y-23571D01*
X10700Y-23542D01*
X10776Y-23514D01*
X10814Y-23514D01*
X10890Y-23542D01*
X10929Y-23571D01*
X10967Y-23628D01*
X10967Y-23742D01*
X11005Y-23800D01*
X11043Y-23828D01*
X11119Y-23857D01*
X11271Y-23857D01*
X11348Y-23828D01*
X11386Y-23800D01*
X11424Y-23742D01*
X11424Y-23628D01*
X11386Y-23571D01*
X11348Y-23542D01*
X11271Y-23514D01*
X11119Y-23514D01*
X11043Y-23542D01*
X11005Y-23571D01*
X10967Y-23628D01*
X10700Y-23286D02*
X10662Y-23257D01*
X10624Y-23200D01*
X10624Y-23057D01*
X10662Y-23000D01*
X10700Y-22971D01*
X10776Y-22943D01*
X10852Y-22943D01*
X10967Y-22971D01*
X11424Y-23314D01*
X11424Y-22943D01*
X10700Y-22715D02*
X10662Y-22686D01*
X10624Y-22629D01*
X10624Y-22486D01*
X10662Y-22429D01*
X10700Y-22400D01*
X10776Y-22372D01*
X10852Y-22372D01*
X10967Y-22400D01*
X11424Y-22743D01*
X11424Y-22372D01*
X11195Y-21687D02*
X11195Y-21401D01*
X11424Y-21744D02*
X10624Y-21544D01*
X11424Y-21344D01*
X10890Y-21144D02*
X11424Y-21144D01*
X10967Y-21144D02*
X10929Y-21116D01*
X10890Y-21058D01*
X10890Y-20973D01*
X10929Y-20916D01*
X11005Y-20887D01*
X11424Y-20887D01*
X11424Y-20344D02*
X11005Y-20344D01*
X10929Y-20373D01*
X10890Y-20430D01*
X10890Y-20544D01*
X10929Y-20601D01*
X11386Y-20344D02*
X11424Y-20401D01*
X11424Y-20544D01*
X11386Y-20601D01*
X11310Y-20630D01*
X11233Y-20630D01*
X11157Y-20601D01*
X11119Y-20544D01*
X11119Y-20401D01*
X11081Y-20344D01*
X11424Y-19972D02*
X11386Y-20030D01*
X11310Y-20058D01*
X10624Y-20058D01*
X11424Y-19658D02*
X11386Y-19716D01*
X11348Y-19744D01*
X11271Y-19773D01*
X11043Y-19773D01*
X10967Y-19744D01*
X10929Y-19716D01*
X10890Y-19658D01*
X10890Y-19573D01*
X10929Y-19516D01*
X10967Y-19487D01*
X11043Y-19458D01*
X11271Y-19458D01*
X11348Y-19487D01*
X11386Y-19516D01*
X11424Y-19573D01*
X11424Y-19658D01*
X10890Y-18944D02*
X11538Y-18944D01*
X11614Y-18973D01*
X11652Y-19001D01*
X11690Y-19058D01*
X11690Y-19144D01*
X11652Y-19201D01*
X11386Y-18944D02*
X11424Y-19001D01*
X11424Y-19115D01*
X11386Y-19173D01*
X11348Y-19201D01*
X11271Y-19230D01*
X11043Y-19230D01*
X10967Y-19201D01*
X10929Y-19173D01*
X10890Y-19115D01*
X10890Y-19001D01*
X10929Y-18944D01*
X10624Y-18087D02*
X10624Y-17973D01*
X10662Y-17915D01*
X10738Y-17858D01*
X10890Y-17830D01*
X11157Y-17830D01*
X11310Y-17858D01*
X11386Y-17915D01*
X11424Y-17973D01*
X11424Y-18087D01*
X11386Y-18144D01*
X11310Y-18201D01*
X11157Y-18230D01*
X10890Y-18230D01*
X10738Y-18201D01*
X10662Y-18144D01*
X10624Y-18087D01*
X10890Y-17315D02*
X11424Y-17315D01*
X10890Y-17572D02*
X11310Y-17572D01*
X11386Y-17544D01*
X11424Y-17486D01*
X11424Y-17401D01*
X11386Y-17344D01*
X11348Y-17315D01*
X10890Y-17115D02*
X10890Y-16886D01*
X10624Y-17029D02*
X11310Y-17029D01*
X11386Y-17001D01*
X11424Y-16943D01*
X11424Y-16886D01*
X10890Y-16686D02*
X11690Y-16686D01*
X10929Y-16686D02*
X10890Y-16629D01*
X10890Y-16515D01*
X10929Y-16458D01*
X10967Y-16429D01*
X11043Y-16400D01*
X11271Y-16400D01*
X11348Y-16429D01*
X11386Y-16458D01*
X11424Y-16515D01*
X11424Y-16629D01*
X11386Y-16686D01*
X10890Y-15886D02*
X11424Y-15886D01*
X10890Y-16143D02*
X11310Y-16143D01*
X11386Y-16115D01*
X11424Y-16057D01*
X11424Y-15972D01*
X11386Y-15915D01*
X11348Y-15886D01*
X10890Y-15686D02*
X10890Y-15457D01*
X10624Y-15600D02*
X11310Y-15600D01*
X11386Y-15572D01*
X11424Y-15514D01*
X11424Y-15457D01*
X11386Y-14829D02*
X11424Y-14743D01*
X11424Y-14600D01*
X11386Y-14543D01*
X11348Y-14514D01*
X11271Y-14486D01*
X11195Y-14486D01*
X11119Y-14514D01*
X11081Y-14543D01*
X11043Y-14600D01*
X11005Y-14714D01*
X10967Y-14772D01*
X10929Y-14800D01*
X10852Y-14829D01*
X10776Y-14829D01*
X10700Y-14800D01*
X10662Y-14772D01*
X10624Y-14714D01*
X10624Y-14572D01*
X10662Y-14486D01*
X11424Y-14229D02*
X10624Y-14229D01*
X11424Y-13972D02*
X11005Y-13972D01*
X10929Y-14001D01*
X10890Y-14058D01*
X10890Y-14143D01*
X10929Y-14201D01*
X10967Y-14229D01*
X11424Y-13686D02*
X10890Y-13686D01*
X10624Y-13686D02*
X10662Y-13715D01*
X10700Y-13686D01*
X10662Y-13658D01*
X10624Y-13686D01*
X10700Y-13686D01*
X11386Y-13172D02*
X11424Y-13229D01*
X11424Y-13343D01*
X11386Y-13400D01*
X11310Y-13429D01*
X11005Y-13429D01*
X10929Y-13400D01*
X10890Y-13343D01*
X10890Y-13229D01*
X10929Y-13172D01*
X11005Y-13143D01*
X11081Y-13143D01*
X11157Y-13429D01*
X11424Y-12800D02*
X11386Y-12858D01*
X11310Y-12886D01*
X10624Y-12886D01*
X11424Y-12315D02*
X10624Y-12315D01*
X11386Y-12315D02*
X11424Y-12372D01*
X11424Y-12486D01*
X11386Y-12544D01*
X11348Y-12572D01*
X11271Y-12601D01*
X11043Y-12601D01*
X10967Y-12572D01*
X10929Y-12544D01*
X10890Y-12486D01*
X10890Y-12372D01*
X10929Y-12315D01*
X12664Y-23457D02*
X11864Y-23457D01*
X11864Y-23057D02*
X11864Y-22943D01*
X11902Y-22885D01*
X11978Y-22828D01*
X12130Y-22800D01*
X12397Y-22800D01*
X12550Y-22828D01*
X12626Y-22885D01*
X12664Y-22943D01*
X12664Y-23057D01*
X12626Y-23114D01*
X12550Y-23171D01*
X12397Y-23200D01*
X12130Y-23200D01*
X11978Y-23171D01*
X11902Y-23114D01*
X11864Y-23057D01*
X12664Y-21742D02*
X12283Y-21942D01*
X12664Y-22085D02*
X11864Y-22085D01*
X11864Y-21857D01*
X11902Y-21799D01*
X11940Y-21771D01*
X12016Y-21742D01*
X12130Y-21742D01*
X12207Y-21771D01*
X12245Y-21799D01*
X12283Y-21857D01*
X12283Y-22085D01*
X12664Y-21399D02*
X12626Y-21457D01*
X12588Y-21485D01*
X12511Y-21514D01*
X12283Y-21514D01*
X12207Y-21485D01*
X12169Y-21457D01*
X12130Y-21399D01*
X12130Y-21314D01*
X12169Y-21257D01*
X12207Y-21228D01*
X12283Y-21199D01*
X12511Y-21199D01*
X12588Y-21228D01*
X12626Y-21257D01*
X12664Y-21314D01*
X12664Y-21399D01*
X12664Y-20685D02*
X11864Y-20685D01*
X12626Y-20685D02*
X12664Y-20742D01*
X12664Y-20856D01*
X12626Y-20914D01*
X12588Y-20942D01*
X12511Y-20971D01*
X12283Y-20971D01*
X12207Y-20942D01*
X12169Y-20914D01*
X12130Y-20856D01*
X12130Y-20742D01*
X12169Y-20685D01*
X12626Y-20171D02*
X12664Y-20228D01*
X12664Y-20342D01*
X12626Y-20399D01*
X12550Y-20428D01*
X12245Y-20428D01*
X12169Y-20399D01*
X12130Y-20342D01*
X12130Y-20228D01*
X12169Y-20171D01*
X12245Y-20142D01*
X12321Y-20142D01*
X12397Y-20428D01*
X12664Y-19799D02*
X12626Y-19857D01*
X12588Y-19885D01*
X12511Y-19914D01*
X12283Y-19914D01*
X12207Y-19885D01*
X12169Y-19857D01*
X12130Y-19799D01*
X12130Y-19714D01*
X12169Y-19657D01*
X12207Y-19628D01*
X12283Y-19599D01*
X12511Y-19599D01*
X12588Y-19628D01*
X12626Y-19657D01*
X12664Y-19714D01*
X12664Y-19799D01*
X12664Y-18885D02*
X11864Y-18885D01*
X12130Y-18599D02*
X12664Y-18599D01*
X12207Y-18599D02*
X12169Y-18571D01*
X12130Y-18513D01*
X12130Y-18428D01*
X12169Y-18371D01*
X12245Y-18342D01*
X12664Y-18342D01*
X12626Y-17799D02*
X12664Y-17856D01*
X12664Y-17970D01*
X12626Y-18028D01*
X12588Y-18056D01*
X12511Y-18085D01*
X12283Y-18085D01*
X12207Y-18056D01*
X12169Y-18028D01*
X12130Y-17970D01*
X12130Y-17856D01*
X12169Y-17799D01*
X12588Y-17542D02*
X12626Y-17514D01*
X12664Y-17542D01*
X12626Y-17571D01*
X12588Y-17542D01*
X12664Y-17542D01*
X11864Y-16885D02*
X12664Y-16685D01*
X11864Y-16485D01*
X12664Y-15971D02*
X12664Y-16314D01*
X12664Y-16142D02*
X11864Y-16142D01*
X11978Y-16199D01*
X12054Y-16257D01*
X12092Y-16314D01*
X12588Y-15714D02*
X12626Y-15686D01*
X12664Y-15714D01*
X12626Y-15743D01*
X12588Y-15714D01*
X12664Y-15714D01*
X11864Y-15314D02*
X11864Y-15257D01*
X11902Y-15200D01*
X11940Y-15171D01*
X12016Y-15142D01*
X12169Y-15114D01*
X12359Y-15114D01*
X12511Y-15142D01*
X12588Y-15171D01*
X12626Y-15200D01*
X12664Y-15257D01*
X12664Y-15314D01*
X12626Y-15371D01*
X12588Y-15400D01*
X12511Y-15428D01*
X12359Y-15457D01*
X12169Y-15457D01*
X12016Y-15428D01*
X11940Y-15400D01*
X11902Y-15371D01*
X11864Y-15314D01*
G54D12*
X31521Y-27986D02*
X31521Y-27795D01*
X31693Y-28024D02*
X31093Y-27891D01*
X31693Y-27757D01*
X31093Y-27433D02*
X31093Y-27624D01*
X31379Y-27643D01*
X31350Y-27624D01*
X31321Y-27586D01*
X31321Y-27490D01*
X31350Y-27452D01*
X31379Y-27433D01*
X31436Y-27414D01*
X31579Y-27414D01*
X31636Y-27433D01*
X31664Y-27452D01*
X31693Y-27490D01*
X31693Y-27586D01*
X31664Y-27624D01*
X31636Y-27643D01*
X30521Y-27986D02*
X30521Y-27795D01*
X30693Y-28024D02*
X30093Y-27891D01*
X30693Y-27757D01*
X30293Y-27452D02*
X30693Y-27452D01*
X30064Y-27548D02*
X30493Y-27643D01*
X30493Y-27395D01*
X29521Y-27986D02*
X29521Y-27795D01*
X29693Y-28024D02*
X29093Y-27891D01*
X29693Y-27757D01*
X29093Y-27662D02*
X29093Y-27414D01*
X29321Y-27548D01*
X29321Y-27490D01*
X29350Y-27452D01*
X29379Y-27433D01*
X29436Y-27414D01*
X29579Y-27414D01*
X29636Y-27433D01*
X29664Y-27452D01*
X29693Y-27490D01*
X29693Y-27605D01*
X29664Y-27643D01*
X29636Y-27662D01*
X28521Y-27986D02*
X28521Y-27795D01*
X28693Y-28024D02*
X28093Y-27891D01*
X28693Y-27757D01*
X28150Y-27643D02*
X28121Y-27624D01*
X28093Y-27586D01*
X28093Y-27490D01*
X28121Y-27452D01*
X28150Y-27433D01*
X28207Y-27414D01*
X28264Y-27414D01*
X28350Y-27433D01*
X28693Y-27662D01*
X28693Y-27414D01*
X27521Y-27986D02*
X27521Y-27795D01*
X27693Y-28024D02*
X27093Y-27891D01*
X27693Y-27757D01*
X27693Y-27414D02*
X27693Y-27643D01*
X27693Y-27529D02*
X27093Y-27529D01*
X27179Y-27567D01*
X27236Y-27605D01*
X27264Y-27643D01*
X26571Y-27986D02*
X26571Y-27795D01*
X26743Y-28024D02*
X26143Y-27891D01*
X26743Y-27757D01*
X26143Y-27548D02*
X26143Y-27509D01*
X26171Y-27471D01*
X26200Y-27452D01*
X26257Y-27433D01*
X26371Y-27414D01*
X26514Y-27414D01*
X26629Y-27433D01*
X26686Y-27452D01*
X26714Y-27471D01*
X26743Y-27509D01*
X26743Y-27548D01*
X26714Y-27586D01*
X26686Y-27605D01*
X26629Y-27624D01*
X26514Y-27643D01*
X26371Y-27643D01*
X26257Y-27624D01*
X26200Y-27605D01*
X26171Y-27586D01*
X26143Y-27548D01*
X24193Y-27988D02*
X24793Y-27855D01*
X24193Y-27721D01*
X24793Y-27588D02*
X24193Y-27588D01*
X24793Y-27398D02*
X24193Y-27398D01*
X24793Y-27169D01*
X24193Y-27169D01*
X23221Y-27804D02*
X23193Y-27842D01*
X23193Y-27899D01*
X23221Y-27957D01*
X23279Y-27995D01*
X23336Y-28014D01*
X23450Y-28033D01*
X23536Y-28033D01*
X23650Y-28014D01*
X23707Y-27995D01*
X23764Y-27957D01*
X23793Y-27899D01*
X23793Y-27861D01*
X23764Y-27804D01*
X23736Y-27785D01*
X23536Y-27785D01*
X23536Y-27861D01*
X23793Y-27614D02*
X23193Y-27614D01*
X23793Y-27385D01*
X23193Y-27385D01*
X23793Y-27195D02*
X23193Y-27195D01*
X23193Y-27100D01*
X23221Y-27042D01*
X23279Y-27004D01*
X23336Y-26985D01*
X23450Y-26966D01*
X23536Y-26966D01*
X23650Y-26985D01*
X23707Y-27004D01*
X23764Y-27042D01*
X23793Y-27100D01*
X23793Y-27195D01*
X22221Y-27804D02*
X22193Y-27842D01*
X22193Y-27899D01*
X22221Y-27957D01*
X22279Y-27995D01*
X22336Y-28014D01*
X22450Y-28033D01*
X22536Y-28033D01*
X22650Y-28014D01*
X22707Y-27995D01*
X22764Y-27957D01*
X22793Y-27899D01*
X22793Y-27861D01*
X22764Y-27804D01*
X22736Y-27785D01*
X22536Y-27785D01*
X22536Y-27861D01*
X22793Y-27614D02*
X22193Y-27614D01*
X22793Y-27385D01*
X22193Y-27385D01*
X22793Y-27195D02*
X22193Y-27195D01*
X22193Y-27100D01*
X22221Y-27042D01*
X22279Y-27004D01*
X22336Y-26985D01*
X22450Y-26966D01*
X22536Y-26966D01*
X22650Y-26985D01*
X22707Y-27004D01*
X22764Y-27042D01*
X22793Y-27100D01*
X22793Y-27195D01*
X21193Y-27826D02*
X21193Y-28017D01*
X21479Y-28036D01*
X21450Y-28017D01*
X21421Y-27979D01*
X21421Y-27883D01*
X21450Y-27845D01*
X21479Y-27826D01*
X21536Y-27807D01*
X21679Y-27807D01*
X21736Y-27826D01*
X21764Y-27845D01*
X21793Y-27883D01*
X21793Y-27979D01*
X21764Y-28017D01*
X21736Y-28036D01*
X21193Y-27693D02*
X21793Y-27560D01*
X21193Y-27426D01*
X20193Y-28045D02*
X20193Y-27797D01*
X20421Y-27931D01*
X20421Y-27873D01*
X20450Y-27835D01*
X20479Y-27816D01*
X20536Y-27797D01*
X20679Y-27797D01*
X20736Y-27816D01*
X20764Y-27835D01*
X20793Y-27873D01*
X20793Y-27988D01*
X20764Y-28026D01*
X20736Y-28045D01*
X20193Y-27683D02*
X20793Y-27550D01*
X20193Y-27416D01*
X20193Y-27321D02*
X20193Y-27073D01*
X20421Y-27207D01*
X20421Y-27149D01*
X20450Y-27111D01*
X20479Y-27092D01*
X20536Y-27073D01*
X20679Y-27073D01*
X20736Y-27092D01*
X20764Y-27111D01*
X20793Y-27149D01*
X20793Y-27264D01*
X20764Y-27302D01*
X20736Y-27321D01*
X19793Y-27819D02*
X19507Y-27953D01*
X19793Y-28048D02*
X19193Y-28048D01*
X19193Y-27895D01*
X19221Y-27857D01*
X19250Y-27838D01*
X19307Y-27819D01*
X19393Y-27819D01*
X19450Y-27838D01*
X19479Y-27857D01*
X19507Y-27895D01*
X19507Y-28048D01*
X19764Y-27667D02*
X19793Y-27610D01*
X19793Y-27514D01*
X19764Y-27476D01*
X19736Y-27457D01*
X19679Y-27438D01*
X19621Y-27438D01*
X19564Y-27457D01*
X19536Y-27476D01*
X19507Y-27514D01*
X19479Y-27591D01*
X19450Y-27629D01*
X19421Y-27648D01*
X19364Y-27667D01*
X19307Y-27667D01*
X19250Y-27648D01*
X19221Y-27629D01*
X19193Y-27591D01*
X19193Y-27495D01*
X19221Y-27438D01*
X19193Y-27324D02*
X19193Y-27095D01*
X19793Y-27210D02*
X19193Y-27210D01*
X31143Y-11555D02*
X31143Y-11326D01*
X31743Y-11441D02*
X31143Y-11441D01*
X31143Y-11231D02*
X31743Y-10964D01*
X31143Y-10964D02*
X31743Y-11231D01*
X30793Y-11316D02*
X30507Y-11450D01*
X30793Y-11545D02*
X30193Y-11545D01*
X30193Y-11392D01*
X30221Y-11354D01*
X30250Y-11335D01*
X30307Y-11316D01*
X30393Y-11316D01*
X30450Y-11335D01*
X30479Y-11354D01*
X30507Y-11392D01*
X30507Y-11545D01*
X30193Y-11183D02*
X30793Y-10916D01*
X30193Y-10916D02*
X30793Y-11183D01*
X29793Y-11545D02*
X29193Y-11545D01*
X29193Y-11450D01*
X29221Y-11392D01*
X29279Y-11354D01*
X29336Y-11335D01*
X29450Y-11316D01*
X29536Y-11316D01*
X29650Y-11335D01*
X29707Y-11354D01*
X29764Y-11392D01*
X29793Y-11450D01*
X29793Y-11545D01*
X29250Y-11164D02*
X29221Y-11145D01*
X29193Y-11107D01*
X29193Y-11011D01*
X29221Y-10973D01*
X29250Y-10954D01*
X29307Y-10935D01*
X29364Y-10935D01*
X29450Y-10954D01*
X29793Y-11183D01*
X29793Y-10935D01*
X28793Y-11545D02*
X28193Y-11545D01*
X28193Y-11450D01*
X28221Y-11392D01*
X28279Y-11354D01*
X28336Y-11335D01*
X28450Y-11316D01*
X28536Y-11316D01*
X28650Y-11335D01*
X28707Y-11354D01*
X28764Y-11392D01*
X28793Y-11450D01*
X28793Y-11545D01*
X28193Y-11183D02*
X28193Y-10935D01*
X28421Y-11069D01*
X28421Y-11011D01*
X28450Y-10973D01*
X28479Y-10954D01*
X28536Y-10935D01*
X28679Y-10935D01*
X28736Y-10954D01*
X28764Y-10973D01*
X28793Y-11011D01*
X28793Y-11126D01*
X28764Y-11164D01*
X28736Y-11183D01*
X26793Y-11545D02*
X26193Y-11545D01*
X26193Y-11450D01*
X26221Y-11392D01*
X26279Y-11354D01*
X26336Y-11335D01*
X26450Y-11316D01*
X26536Y-11316D01*
X26650Y-11335D01*
X26707Y-11354D01*
X26764Y-11392D01*
X26793Y-11450D01*
X26793Y-11545D01*
X26193Y-10954D02*
X26193Y-11145D01*
X26479Y-11164D01*
X26450Y-11145D01*
X26421Y-11107D01*
X26421Y-11011D01*
X26450Y-10973D01*
X26479Y-10954D01*
X26536Y-10935D01*
X26679Y-10935D01*
X26736Y-10954D01*
X26764Y-10973D01*
X26793Y-11011D01*
X26793Y-11107D01*
X26764Y-11145D01*
X26736Y-11164D01*
X25743Y-11545D02*
X25143Y-11545D01*
X25143Y-11450D01*
X25171Y-11392D01*
X25229Y-11354D01*
X25286Y-11335D01*
X25400Y-11316D01*
X25486Y-11316D01*
X25600Y-11335D01*
X25657Y-11354D01*
X25714Y-11392D01*
X25743Y-11450D01*
X25743Y-11545D01*
X25143Y-10973D02*
X25143Y-11050D01*
X25171Y-11088D01*
X25200Y-11107D01*
X25286Y-11145D01*
X25400Y-11164D01*
X25629Y-11164D01*
X25686Y-11145D01*
X25714Y-11126D01*
X25743Y-11088D01*
X25743Y-11011D01*
X25714Y-10973D01*
X25686Y-10954D01*
X25629Y-10935D01*
X25486Y-10935D01*
X25429Y-10954D01*
X25400Y-10973D01*
X25371Y-11011D01*
X25371Y-11088D01*
X25400Y-11126D01*
X25429Y-11145D01*
X25486Y-11164D01*
X24686Y-11657D02*
X24714Y-11676D01*
X24743Y-11733D01*
X24743Y-11771D01*
X24714Y-11829D01*
X24657Y-11867D01*
X24600Y-11886D01*
X24486Y-11905D01*
X24400Y-11905D01*
X24286Y-11886D01*
X24229Y-11867D01*
X24171Y-11829D01*
X24143Y-11771D01*
X24143Y-11733D01*
X24171Y-11676D01*
X24200Y-11657D01*
X24714Y-11505D02*
X24743Y-11448D01*
X24743Y-11352D01*
X24714Y-11314D01*
X24686Y-11295D01*
X24629Y-11276D01*
X24571Y-11276D01*
X24514Y-11295D01*
X24486Y-11314D01*
X24457Y-11352D01*
X24429Y-11429D01*
X24400Y-11467D01*
X24371Y-11486D01*
X24314Y-11505D01*
X24257Y-11505D01*
X24200Y-11486D01*
X24171Y-11467D01*
X24143Y-11429D01*
X24143Y-11333D01*
X24171Y-11276D01*
X24743Y-10895D02*
X24743Y-11124D01*
X24743Y-11010D02*
X24143Y-11010D01*
X24229Y-11048D01*
X24286Y-11086D01*
X24314Y-11124D01*
X23193Y-11545D02*
X22593Y-11545D01*
X22593Y-11450D01*
X22621Y-11392D01*
X22679Y-11354D01*
X22736Y-11335D01*
X22850Y-11316D01*
X22936Y-11316D01*
X23050Y-11335D01*
X23107Y-11354D01*
X23164Y-11392D01*
X23193Y-11450D01*
X23193Y-11545D01*
X22850Y-11088D02*
X22821Y-11126D01*
X22793Y-11145D01*
X22736Y-11164D01*
X22707Y-11164D01*
X22650Y-11145D01*
X22621Y-11126D01*
X22593Y-11088D01*
X22593Y-11011D01*
X22621Y-10973D01*
X22650Y-10954D01*
X22707Y-10935D01*
X22736Y-10935D01*
X22793Y-10954D01*
X22821Y-10973D01*
X22850Y-11011D01*
X22850Y-11088D01*
X22879Y-11126D01*
X22907Y-11145D01*
X22964Y-11164D01*
X23079Y-11164D01*
X23136Y-11145D01*
X23164Y-11126D01*
X23193Y-11088D01*
X23193Y-11011D01*
X23164Y-10973D01*
X23136Y-10954D01*
X23079Y-10935D01*
X22964Y-10935D01*
X22907Y-10954D01*
X22879Y-10973D01*
X22850Y-11011D01*
X22136Y-11707D02*
X22164Y-11726D01*
X22193Y-11783D01*
X22193Y-11821D01*
X22164Y-11879D01*
X22107Y-11917D01*
X22050Y-11936D01*
X21936Y-11955D01*
X21850Y-11955D01*
X21736Y-11936D01*
X21679Y-11917D01*
X21621Y-11879D01*
X21593Y-11821D01*
X21593Y-11783D01*
X21621Y-11726D01*
X21650Y-11707D01*
X22164Y-11555D02*
X22193Y-11498D01*
X22193Y-11402D01*
X22164Y-11364D01*
X22136Y-11345D01*
X22079Y-11326D01*
X22021Y-11326D01*
X21964Y-11345D01*
X21936Y-11364D01*
X21907Y-11402D01*
X21879Y-11479D01*
X21850Y-11517D01*
X21821Y-11536D01*
X21764Y-11555D01*
X21707Y-11555D01*
X21650Y-11536D01*
X21621Y-11517D01*
X21593Y-11479D01*
X21593Y-11383D01*
X21621Y-11326D01*
X21593Y-11079D02*
X21593Y-11040D01*
X21621Y-11002D01*
X21650Y-10983D01*
X21707Y-10964D01*
X21821Y-10945D01*
X21964Y-10945D01*
X22079Y-10964D01*
X22136Y-10983D01*
X22164Y-11002D01*
X22193Y-11040D01*
X22193Y-11079D01*
X22164Y-11117D01*
X22136Y-11136D01*
X22079Y-11155D01*
X21964Y-11174D01*
X21821Y-11174D01*
X21707Y-11155D01*
X21650Y-11136D01*
X21621Y-11117D01*
X21593Y-11079D01*
X21193Y-11936D02*
X20593Y-11936D01*
X20593Y-11841D01*
X20621Y-11783D01*
X20679Y-11745D01*
X20736Y-11726D01*
X20850Y-11707D01*
X20936Y-11707D01*
X21050Y-11726D01*
X21107Y-11745D01*
X21164Y-11783D01*
X21193Y-11841D01*
X21193Y-11936D01*
X21193Y-11326D02*
X21193Y-11555D01*
X21193Y-11441D02*
X20593Y-11441D01*
X20679Y-11479D01*
X20736Y-11517D01*
X20764Y-11555D01*
X20593Y-11079D02*
X20593Y-11040D01*
X20621Y-11002D01*
X20650Y-10983D01*
X20707Y-10964D01*
X20821Y-10945D01*
X20964Y-10945D01*
X21079Y-10964D01*
X21136Y-10983D01*
X21164Y-11002D01*
X21193Y-11040D01*
X21193Y-11079D01*
X21164Y-11117D01*
X21136Y-11136D01*
X21079Y-11155D01*
X20964Y-11174D01*
X20821Y-11174D01*
X20707Y-11155D01*
X20650Y-11136D01*
X20621Y-11117D01*
X20593Y-11079D01*
X20193Y-12228D02*
X19593Y-12228D01*
X20021Y-12094D01*
X19593Y-11961D01*
X20193Y-11961D01*
X19593Y-11695D02*
X19593Y-11618D01*
X19621Y-11580D01*
X19679Y-11542D01*
X19793Y-11523D01*
X19993Y-11523D01*
X20107Y-11542D01*
X20164Y-11580D01*
X20193Y-11618D01*
X20193Y-11695D01*
X20164Y-11733D01*
X20107Y-11771D01*
X19993Y-11790D01*
X19793Y-11790D01*
X19679Y-11771D01*
X19621Y-11733D01*
X19593Y-11695D01*
X20164Y-11371D02*
X20193Y-11314D01*
X20193Y-11218D01*
X20164Y-11180D01*
X20136Y-11161D01*
X20079Y-11142D01*
X20021Y-11142D01*
X19964Y-11161D01*
X19936Y-11180D01*
X19907Y-11218D01*
X19879Y-11295D01*
X19850Y-11333D01*
X19821Y-11352D01*
X19764Y-11371D01*
X19707Y-11371D01*
X19650Y-11352D01*
X19621Y-11333D01*
X19593Y-11295D01*
X19593Y-11199D01*
X19621Y-11142D01*
X20193Y-10971D02*
X19593Y-10971D01*
X19143Y-11936D02*
X18543Y-11936D01*
X18543Y-11841D01*
X18571Y-11783D01*
X18629Y-11745D01*
X18686Y-11726D01*
X18800Y-11707D01*
X18886Y-11707D01*
X19000Y-11726D01*
X19057Y-11745D01*
X19114Y-11783D01*
X19143Y-11841D01*
X19143Y-11936D01*
X19143Y-11326D02*
X19143Y-11555D01*
X19143Y-11441D02*
X18543Y-11441D01*
X18629Y-11479D01*
X18686Y-11517D01*
X18714Y-11555D01*
X18600Y-11174D02*
X18571Y-11155D01*
X18543Y-11117D01*
X18543Y-11021D01*
X18571Y-10983D01*
X18600Y-10964D01*
X18657Y-10945D01*
X18714Y-10945D01*
X18800Y-10964D01*
X19143Y-11193D01*
X19143Y-10945D01*
X18114Y-11964D02*
X18143Y-11907D01*
X18143Y-11811D01*
X18114Y-11773D01*
X18086Y-11754D01*
X18029Y-11735D01*
X17971Y-11735D01*
X17914Y-11754D01*
X17886Y-11773D01*
X17857Y-11811D01*
X17829Y-11888D01*
X17800Y-11926D01*
X17771Y-11945D01*
X17714Y-11964D01*
X17657Y-11964D01*
X17600Y-11945D01*
X17571Y-11926D01*
X17543Y-11888D01*
X17543Y-11792D01*
X17571Y-11735D01*
X18086Y-11335D02*
X18114Y-11354D01*
X18143Y-11411D01*
X18143Y-11449D01*
X18114Y-11507D01*
X18057Y-11545D01*
X18000Y-11564D01*
X17886Y-11583D01*
X17800Y-11583D01*
X17686Y-11564D01*
X17629Y-11545D01*
X17571Y-11507D01*
X17543Y-11449D01*
X17543Y-11411D01*
X17571Y-11354D01*
X17600Y-11335D01*
X18143Y-11164D02*
X17543Y-11164D01*
X18143Y-10935D02*
X17800Y-11107D01*
X17543Y-10935D02*
X17886Y-11164D01*
X16621Y-11804D02*
X16593Y-11842D01*
X16593Y-11899D01*
X16621Y-11957D01*
X16679Y-11995D01*
X16736Y-12014D01*
X16850Y-12033D01*
X16936Y-12033D01*
X17050Y-12014D01*
X17107Y-11995D01*
X17164Y-11957D01*
X17193Y-11899D01*
X17193Y-11861D01*
X17164Y-11804D01*
X17136Y-11785D01*
X16936Y-11785D01*
X16936Y-11861D01*
X17193Y-11614D02*
X16593Y-11614D01*
X17193Y-11385D01*
X16593Y-11385D01*
X17193Y-11195D02*
X16593Y-11195D01*
X16593Y-11100D01*
X16621Y-11042D01*
X16679Y-11004D01*
X16736Y-10985D01*
X16850Y-10966D01*
X16936Y-10966D01*
X17050Y-10985D01*
X17107Y-11004D01*
X17164Y-11042D01*
X17193Y-11100D01*
X17193Y-11195D01*
X16071Y-12198D02*
X16071Y-12007D01*
X16243Y-12236D02*
X15643Y-12103D01*
X16243Y-11969D01*
X16243Y-11607D02*
X15957Y-11741D01*
X16243Y-11836D02*
X15643Y-11836D01*
X15643Y-11683D01*
X15671Y-11645D01*
X15700Y-11626D01*
X15757Y-11607D01*
X15843Y-11607D01*
X15900Y-11626D01*
X15929Y-11645D01*
X15957Y-11683D01*
X15957Y-11836D01*
X15929Y-11436D02*
X15929Y-11302D01*
X16243Y-11245D02*
X16243Y-11436D01*
X15643Y-11436D01*
X15643Y-11245D01*
X15929Y-10940D02*
X15929Y-11074D01*
X16243Y-11074D02*
X15643Y-11074D01*
X15643Y-10883D01*
X27793Y-12047D02*
X27793Y-12238D01*
X27193Y-12238D01*
X27793Y-11914D02*
X27193Y-11914D01*
X27193Y-11819D01*
X27221Y-11761D01*
X27279Y-11723D01*
X27336Y-11704D01*
X27450Y-11685D01*
X27536Y-11685D01*
X27650Y-11704D01*
X27707Y-11723D01*
X27764Y-11761D01*
X27793Y-11819D01*
X27793Y-11914D01*
X27621Y-11533D02*
X27621Y-11342D01*
X27793Y-11571D02*
X27193Y-11438D01*
X27793Y-11304D01*
X27736Y-10942D02*
X27764Y-10961D01*
X27793Y-11018D01*
X27793Y-11056D01*
X27764Y-11114D01*
X27707Y-11152D01*
X27650Y-11171D01*
X27536Y-11190D01*
X27450Y-11190D01*
X27336Y-11171D01*
X27279Y-11152D01*
X27221Y-11114D01*
X27193Y-11056D01*
X27193Y-11018D01*
X27221Y-10961D01*
X27250Y-10942D01*
X33636Y-10961D02*
X33598Y-10933D01*
X33541Y-10933D01*
X33483Y-10961D01*
X33445Y-11019D01*
X33426Y-11076D01*
X33407Y-11190D01*
X33407Y-11276D01*
X33426Y-11390D01*
X33445Y-11447D01*
X33483Y-11504D01*
X33541Y-11533D01*
X33579Y-11533D01*
X33636Y-11504D01*
X33655Y-11476D01*
X33655Y-11276D01*
X33579Y-11276D01*
X33826Y-11533D02*
X33826Y-10933D01*
X34055Y-11533D01*
X34055Y-10933D01*
X34245Y-11533D02*
X34245Y-10933D01*
X34340Y-10933D01*
X34398Y-10961D01*
X34436Y-11019D01*
X34455Y-11076D01*
X34474Y-11190D01*
X34474Y-11276D01*
X34455Y-11390D01*
X34436Y-11447D01*
X34398Y-11504D01*
X34340Y-11533D01*
X34245Y-11533D01*
X33845Y-12873D02*
X33845Y-12273D01*
X33940Y-12273D01*
X33998Y-12301D01*
X34036Y-12359D01*
X34055Y-12416D01*
X34074Y-12530D01*
X34074Y-12616D01*
X34055Y-12730D01*
X34036Y-12787D01*
X33998Y-12844D01*
X33940Y-12873D01*
X33845Y-12873D01*
X34417Y-12273D02*
X34340Y-12273D01*
X34302Y-12301D01*
X34283Y-12330D01*
X34245Y-12416D01*
X34226Y-12530D01*
X34226Y-12759D01*
X34245Y-12816D01*
X34264Y-12844D01*
X34302Y-12873D01*
X34379Y-12873D01*
X34417Y-12844D01*
X34436Y-12816D01*
X34455Y-12759D01*
X34455Y-12616D01*
X34436Y-12559D01*
X34417Y-12530D01*
X34379Y-12501D01*
X34302Y-12501D01*
X34264Y-12530D01*
X34245Y-12559D01*
X34226Y-12616D01*
X33875Y-14293D02*
X33875Y-13693D01*
X33970Y-13693D01*
X34028Y-13721D01*
X34066Y-13779D01*
X34085Y-13836D01*
X34104Y-13950D01*
X34104Y-14036D01*
X34085Y-14150D01*
X34066Y-14207D01*
X34028Y-14264D01*
X33970Y-14293D01*
X33875Y-14293D01*
X34466Y-13693D02*
X34275Y-13693D01*
X34256Y-13979D01*
X34275Y-13950D01*
X34313Y-13921D01*
X34409Y-13921D01*
X34447Y-13950D01*
X34466Y-13979D01*
X34485Y-14036D01*
X34485Y-14179D01*
X34466Y-14236D01*
X34447Y-14264D01*
X34409Y-14293D01*
X34313Y-14293D01*
X34275Y-14264D01*
X34256Y-14236D01*
X33885Y-15703D02*
X33885Y-15103D01*
X33980Y-15103D01*
X34038Y-15131D01*
X34076Y-15189D01*
X34095Y-15246D01*
X34114Y-15360D01*
X34114Y-15446D01*
X34095Y-15560D01*
X34076Y-15617D01*
X34038Y-15674D01*
X33980Y-15703D01*
X33885Y-15703D01*
X34247Y-15103D02*
X34495Y-15103D01*
X34361Y-15331D01*
X34419Y-15331D01*
X34457Y-15360D01*
X34476Y-15389D01*
X34495Y-15446D01*
X34495Y-15589D01*
X34476Y-15646D01*
X34457Y-15674D01*
X34419Y-15703D01*
X34304Y-15703D01*
X34266Y-15674D01*
X34247Y-15646D01*
X33885Y-17063D02*
X33885Y-16463D01*
X33980Y-16463D01*
X34038Y-16491D01*
X34076Y-16549D01*
X34095Y-16606D01*
X34114Y-16720D01*
X34114Y-16806D01*
X34095Y-16920D01*
X34076Y-16977D01*
X34038Y-17034D01*
X33980Y-17063D01*
X33885Y-17063D01*
X34266Y-16520D02*
X34285Y-16491D01*
X34323Y-16463D01*
X34419Y-16463D01*
X34457Y-16491D01*
X34476Y-16520D01*
X34495Y-16577D01*
X34495Y-16634D01*
X34476Y-16720D01*
X34247Y-17063D01*
X34495Y-17063D01*
X33934Y-18271D02*
X34125Y-18271D01*
X33896Y-18443D02*
X34029Y-17843D01*
X34163Y-18443D01*
X34258Y-17843D02*
X34506Y-17843D01*
X34372Y-18071D01*
X34430Y-18071D01*
X34468Y-18100D01*
X34487Y-18129D01*
X34506Y-18186D01*
X34506Y-18329D01*
X34487Y-18386D01*
X34468Y-18414D01*
X34430Y-18443D01*
X34315Y-18443D01*
X34277Y-18414D01*
X34258Y-18386D01*
X33914Y-19671D02*
X34105Y-19671D01*
X33876Y-19843D02*
X34009Y-19243D01*
X34143Y-19843D01*
X34257Y-19300D02*
X34276Y-19271D01*
X34314Y-19243D01*
X34410Y-19243D01*
X34448Y-19271D01*
X34467Y-19300D01*
X34486Y-19357D01*
X34486Y-19414D01*
X34467Y-19500D01*
X34238Y-19843D01*
X34486Y-19843D01*
X33964Y-21141D02*
X34155Y-21141D01*
X33926Y-21313D02*
X34059Y-20713D01*
X34193Y-21313D01*
X34536Y-21313D02*
X34307Y-21313D01*
X34421Y-21313D02*
X34421Y-20713D01*
X34383Y-20799D01*
X34345Y-20856D01*
X34307Y-20884D01*
X33954Y-22441D02*
X34145Y-22441D01*
X33916Y-22613D02*
X34049Y-22013D01*
X34183Y-22613D01*
X34392Y-22013D02*
X34431Y-22013D01*
X34469Y-22041D01*
X34488Y-22070D01*
X34507Y-22127D01*
X34526Y-22241D01*
X34526Y-22384D01*
X34507Y-22499D01*
X34488Y-22556D01*
X34469Y-22584D01*
X34431Y-22613D01*
X34392Y-22613D01*
X34354Y-22584D01*
X34335Y-22556D01*
X34316Y-22499D01*
X34297Y-22384D01*
X34297Y-22241D01*
X34316Y-22127D01*
X34335Y-22070D01*
X34354Y-22041D01*
X34392Y-22013D01*
X33135Y-24703D02*
X33268Y-25303D01*
X33402Y-24703D01*
X33611Y-24703D02*
X33688Y-24703D01*
X33726Y-24731D01*
X33764Y-24789D01*
X33783Y-24903D01*
X33783Y-25103D01*
X33764Y-25217D01*
X33726Y-25274D01*
X33688Y-25303D01*
X33611Y-25303D01*
X33573Y-25274D01*
X33535Y-25217D01*
X33516Y-25103D01*
X33516Y-24903D01*
X33535Y-24789D01*
X33573Y-24731D01*
X33611Y-24703D01*
X33935Y-25131D02*
X34126Y-25131D01*
X33897Y-25303D02*
X34030Y-24703D01*
X34164Y-25303D01*
X34507Y-25303D02*
X34278Y-25303D01*
X34392Y-25303D02*
X34392Y-24703D01*
X34354Y-24789D01*
X34316Y-24846D01*
X34278Y-24874D01*
G54D10*
X33441Y-26202D02*
X33541Y-26602D01*
X33641Y-26202D01*
X33798Y-26202D02*
X33855Y-26202D01*
X33883Y-26221D01*
X33912Y-26259D01*
X33926Y-26335D01*
X33926Y-26469D01*
X33912Y-26545D01*
X33883Y-26583D01*
X33855Y-26602D01*
X33798Y-26602D01*
X33769Y-26583D01*
X33740Y-26545D01*
X33726Y-26469D01*
X33726Y-26335D01*
X33740Y-26259D01*
X33769Y-26221D01*
X33798Y-26202D01*
X34154Y-26392D02*
X34197Y-26411D01*
X34212Y-26430D01*
X34226Y-26469D01*
X34226Y-26526D01*
X34212Y-26564D01*
X34197Y-26583D01*
X34169Y-26602D01*
X34054Y-26602D01*
X34054Y-26202D01*
X34154Y-26202D01*
X34183Y-26221D01*
X34197Y-26240D01*
X34212Y-26278D01*
X34212Y-26316D01*
X34197Y-26354D01*
X34183Y-26373D01*
X34154Y-26392D01*
X34054Y-26392D01*
X34412Y-26202D02*
X34440Y-26202D01*
X34469Y-26221D01*
X34483Y-26240D01*
X34497Y-26278D01*
X34512Y-26354D01*
X34512Y-26450D01*
X34497Y-26526D01*
X34483Y-26564D01*
X34469Y-26583D01*
X34440Y-26602D01*
X34412Y-26602D01*
X34383Y-26583D01*
X34369Y-26564D01*
X34354Y-26526D01*
X34340Y-26450D01*
X34340Y-26354D01*
X34354Y-26278D01*
X34369Y-26240D01*
X34383Y-26221D01*
X34412Y-26202D01*
G54D12*
X33165Y-27723D02*
X33298Y-28323D01*
X33432Y-27723D01*
X33641Y-27723D02*
X33718Y-27723D01*
X33756Y-27751D01*
X33794Y-27809D01*
X33813Y-27923D01*
X33813Y-28123D01*
X33794Y-28237D01*
X33756Y-28294D01*
X33718Y-28323D01*
X33641Y-28323D01*
X33603Y-28294D01*
X33565Y-28237D01*
X33546Y-28123D01*
X33546Y-27923D01*
X33565Y-27809D01*
X33603Y-27751D01*
X33641Y-27723D01*
X33965Y-28151D02*
X34156Y-28151D01*
X33927Y-28323D02*
X34060Y-27723D01*
X34194Y-28323D01*
X34403Y-27723D02*
X34442Y-27723D01*
X34480Y-27751D01*
X34499Y-27780D01*
X34518Y-27837D01*
X34537Y-27951D01*
X34537Y-28094D01*
X34518Y-28209D01*
X34499Y-28266D01*
X34480Y-28294D01*
X34442Y-28323D01*
X34403Y-28323D01*
X34365Y-28294D01*
X34346Y-28266D01*
X34327Y-28209D01*
X34308Y-28094D01*
X34308Y-27951D01*
X34327Y-27837D01*
X34346Y-27780D01*
X34365Y-27751D01*
X34403Y-27723D01*
X33117Y-23393D02*
X33250Y-23993D01*
X33384Y-23393D01*
X33593Y-23393D02*
X33670Y-23393D01*
X33708Y-23421D01*
X33746Y-23479D01*
X33765Y-23593D01*
X33765Y-23793D01*
X33746Y-23907D01*
X33708Y-23964D01*
X33670Y-23993D01*
X33593Y-23993D01*
X33555Y-23964D01*
X33517Y-23907D01*
X33498Y-23793D01*
X33498Y-23593D01*
X33517Y-23479D01*
X33555Y-23421D01*
X33593Y-23393D01*
X34070Y-23679D02*
X34127Y-23707D01*
X34146Y-23736D01*
X34165Y-23793D01*
X34165Y-23879D01*
X34146Y-23936D01*
X34127Y-23964D01*
X34089Y-23993D01*
X33936Y-23993D01*
X33936Y-23393D01*
X34070Y-23393D01*
X34108Y-23421D01*
X34127Y-23450D01*
X34146Y-23507D01*
X34146Y-23564D01*
X34127Y-23621D01*
X34108Y-23650D01*
X34070Y-23679D01*
X33936Y-23679D01*
X34546Y-23993D02*
X34317Y-23993D01*
X34431Y-23993D02*
X34431Y-23393D01*
X34393Y-23479D01*
X34355Y-23536D01*
X34317Y-23564D01*
G54D13*
X27900Y-20000D02*
X27400Y-20000D01*
X27400Y-20000D02*
X27400Y-19000D01*
X27400Y-19000D02*
X27900Y-19000D01*
X27900Y-20500D02*
X23900Y-20500D01*
X23900Y-20500D02*
X23900Y-18500D01*
X23900Y-18500D02*
X27900Y-18500D01*
X27900Y-18500D02*
X27900Y-20500D01*
X17600Y-20000D02*
X17100Y-20000D01*
X17100Y-20000D02*
X17100Y-19000D01*
X17100Y-19000D02*
X17600Y-19000D01*
X17600Y-20500D02*
X13600Y-20500D01*
X13600Y-20500D02*
X13600Y-18500D01*
X13600Y-18500D02*
X17600Y-18500D01*
X17600Y-18500D02*
X17600Y-20500D01*
G54D11*
X27800Y-13700D02*
X25000Y-13700D01*
X25000Y-13700D02*
X25000Y-12900D01*
X25000Y-12900D02*
X27800Y-12900D01*
X27800Y-12900D02*
X27800Y-13700D01*
X27800Y-13500D02*
X27600Y-13700D01*
X17500Y-13700D02*
X14700Y-13700D01*
X14700Y-13700D02*
X14700Y-12900D01*
X14700Y-12900D02*
X17500Y-12900D01*
X17500Y-12900D02*
X17500Y-13700D01*
X17500Y-13500D02*
X17300Y-13700D01*
X27800Y-15900D02*
X25000Y-15900D01*
X25000Y-15900D02*
X25000Y-15100D01*
X25000Y-15100D02*
X27800Y-15100D01*
X27800Y-15100D02*
X27800Y-15900D01*
X27800Y-15700D02*
X27600Y-15900D01*
X17500Y-15900D02*
X14700Y-15900D01*
X14700Y-15900D02*
X14700Y-15100D01*
X14700Y-15100D02*
X17500Y-15100D01*
X17500Y-15100D02*
X17500Y-15900D01*
X17500Y-15700D02*
X17300Y-15900D01*
X27800Y-23000D02*
X27800Y-25800D01*
X27800Y-25800D02*
X27000Y-25800D01*
X27000Y-25800D02*
X27000Y-23000D01*
X27000Y-23000D02*
X27800Y-23000D01*
X27600Y-23000D02*
X27800Y-23200D01*
X17500Y-23000D02*
X17500Y-25800D01*
X17500Y-25800D02*
X16700Y-25800D01*
X16700Y-25800D02*
X16700Y-23000D01*
X16700Y-23000D02*
X17500Y-23000D01*
X17300Y-23000D02*
X17500Y-23200D01*
X25800Y-23000D02*
X25800Y-25800D01*
X25800Y-25800D02*
X25000Y-25800D01*
X25000Y-25800D02*
X25000Y-23000D01*
X25000Y-23000D02*
X25800Y-23000D01*
X25600Y-23000D02*
X25800Y-23200D01*
X15500Y-23000D02*
X15500Y-25800D01*
X15500Y-25800D02*
X14700Y-25800D01*
X14700Y-25800D02*
X14700Y-23000D01*
X14700Y-23000D02*
X15500Y-23000D01*
X15300Y-23000D02*
X15500Y-23200D01*
G54D14*
X37500Y-30000D02*
X37500Y-09000D01*
X37500Y-09000D02*
X10000Y-09000D01*
X10000Y-30000D02*
X37500Y-30000D01*
X10000Y-30000D02*
X10000Y-09000D01*
X34683Y-10326D02*
X34683Y-28673D01*
X37477Y-10327D02*
X37477Y-28673D01*
X34682Y-28674D02*
X37438Y-28674D01*
X34683Y-10325D02*
X37478Y-10325D01*
G54D12*
X28102Y-19843D02*
X28507Y-19843D01*
X28555Y-19821D01*
X28579Y-19800D01*
X28602Y-19757D01*
X28602Y-19671D01*
X28579Y-19629D01*
X28555Y-19607D01*
X28507Y-19586D01*
X28102Y-19586D01*
X28602Y-19136D02*
X28602Y-19393D01*
X28602Y-19265D02*
X28102Y-19265D01*
X28174Y-19308D01*
X28221Y-19350D01*
X28245Y-19393D01*
X29302Y-20735D02*
X28802Y-20735D01*
X29160Y-20601D01*
X28802Y-20468D01*
X29302Y-20468D01*
X29255Y-20049D02*
X29279Y-20068D01*
X29302Y-20125D01*
X29302Y-20163D01*
X29279Y-20221D01*
X29231Y-20259D01*
X29183Y-20278D01*
X29088Y-20297D01*
X29017Y-20297D01*
X28921Y-20278D01*
X28874Y-20259D01*
X28826Y-20221D01*
X28802Y-20163D01*
X28802Y-20125D01*
X28826Y-20068D01*
X28850Y-20049D01*
X29302Y-19878D02*
X28802Y-19878D01*
X28802Y-19725D01*
X28826Y-19687D01*
X28850Y-19668D01*
X28898Y-19649D01*
X28969Y-19649D01*
X29017Y-19668D01*
X29040Y-19687D01*
X29064Y-19725D01*
X29064Y-19878D01*
X28969Y-19306D02*
X29302Y-19306D01*
X28779Y-19402D02*
X29136Y-19497D01*
X29136Y-19249D01*
X29017Y-19040D02*
X28993Y-19078D01*
X28969Y-19097D01*
X28921Y-19116D01*
X28898Y-19116D01*
X28850Y-19097D01*
X28826Y-19078D01*
X28802Y-19040D01*
X28802Y-18963D01*
X28826Y-18925D01*
X28850Y-18906D01*
X28898Y-18887D01*
X28921Y-18887D01*
X28969Y-18906D01*
X28993Y-18925D01*
X29017Y-18963D01*
X29017Y-19040D01*
X29040Y-19078D01*
X29064Y-19097D01*
X29112Y-19116D01*
X29207Y-19116D01*
X29255Y-19097D01*
X29279Y-19078D01*
X29302Y-19040D01*
X29302Y-18963D01*
X29279Y-18925D01*
X29255Y-18906D01*
X29207Y-18887D01*
X29112Y-18887D01*
X29064Y-18906D01*
X29040Y-18925D01*
X29017Y-18963D01*
X28802Y-18754D02*
X29302Y-18487D01*
X28802Y-18487D02*
X29302Y-18754D01*
X28802Y-18373D02*
X29302Y-18106D01*
X28802Y-18106D02*
X29302Y-18373D01*
X17882Y-19933D02*
X18287Y-19933D01*
X18335Y-19911D01*
X18359Y-19890D01*
X18382Y-19847D01*
X18382Y-19761D01*
X18359Y-19719D01*
X18335Y-19697D01*
X18287Y-19676D01*
X17882Y-19676D01*
X17930Y-19483D02*
X17906Y-19462D01*
X17882Y-19419D01*
X17882Y-19312D01*
X17906Y-19269D01*
X17930Y-19248D01*
X17978Y-19226D01*
X18025Y-19226D01*
X18097Y-19248D01*
X18382Y-19505D01*
X18382Y-19226D01*
X19222Y-20825D02*
X18722Y-20825D01*
X19080Y-20691D01*
X18722Y-20558D01*
X19222Y-20558D01*
X19175Y-20139D02*
X19199Y-20158D01*
X19222Y-20215D01*
X19222Y-20253D01*
X19199Y-20311D01*
X19151Y-20349D01*
X19103Y-20368D01*
X19008Y-20387D01*
X18937Y-20387D01*
X18841Y-20368D01*
X18794Y-20349D01*
X18746Y-20311D01*
X18722Y-20253D01*
X18722Y-20215D01*
X18746Y-20158D01*
X18770Y-20139D01*
X19222Y-19968D02*
X18722Y-19968D01*
X18722Y-19815D01*
X18746Y-19777D01*
X18770Y-19758D01*
X18818Y-19739D01*
X18889Y-19739D01*
X18937Y-19758D01*
X18960Y-19777D01*
X18984Y-19815D01*
X18984Y-19968D01*
X18889Y-19396D02*
X19222Y-19396D01*
X18699Y-19492D02*
X19056Y-19587D01*
X19056Y-19339D01*
X18937Y-19130D02*
X18913Y-19168D01*
X18889Y-19187D01*
X18841Y-19206D01*
X18818Y-19206D01*
X18770Y-19187D01*
X18746Y-19168D01*
X18722Y-19130D01*
X18722Y-19053D01*
X18746Y-19015D01*
X18770Y-18996D01*
X18818Y-18977D01*
X18841Y-18977D01*
X18889Y-18996D01*
X18913Y-19015D01*
X18937Y-19053D01*
X18937Y-19130D01*
X18960Y-19168D01*
X18984Y-19187D01*
X19032Y-19206D01*
X19127Y-19206D01*
X19175Y-19187D01*
X19199Y-19168D01*
X19222Y-19130D01*
X19222Y-19053D01*
X19199Y-19015D01*
X19175Y-18996D01*
X19127Y-18977D01*
X19032Y-18977D01*
X18984Y-18996D01*
X18960Y-19015D01*
X18937Y-19053D01*
X18722Y-18844D02*
X19222Y-18577D01*
X18722Y-18577D02*
X19222Y-18844D01*
X18722Y-18463D02*
X19222Y-18196D01*
X18722Y-18196D02*
X19222Y-18463D01*
X25234Y-14224D02*
X25215Y-14243D01*
X25158Y-14262D01*
X25120Y-14262D01*
X25062Y-14243D01*
X25024Y-14205D01*
X25005Y-14167D01*
X24986Y-14090D01*
X24986Y-14033D01*
X25005Y-13957D01*
X25024Y-13919D01*
X25062Y-13881D01*
X25120Y-13862D01*
X25158Y-13862D01*
X25215Y-13881D01*
X25234Y-13900D01*
X25367Y-13862D02*
X25615Y-13862D01*
X25481Y-14014D01*
X25539Y-14014D01*
X25577Y-14033D01*
X25596Y-14052D01*
X25615Y-14090D01*
X25615Y-14186D01*
X25596Y-14224D01*
X25577Y-14243D01*
X25539Y-14262D01*
X25424Y-14262D01*
X25386Y-14243D01*
X25367Y-14224D01*
X27272Y-14262D02*
X27043Y-14262D01*
X27157Y-14262D02*
X27157Y-13862D01*
X27119Y-13919D01*
X27081Y-13957D01*
X27043Y-13976D01*
X27519Y-13862D02*
X27558Y-13862D01*
X27596Y-13881D01*
X27615Y-13900D01*
X27634Y-13938D01*
X27653Y-14014D01*
X27653Y-14110D01*
X27634Y-14186D01*
X27615Y-14224D01*
X27596Y-14243D01*
X27558Y-14262D01*
X27519Y-14262D01*
X27481Y-14243D01*
X27462Y-14224D01*
X27443Y-14186D01*
X27424Y-14110D01*
X27424Y-14014D01*
X27443Y-13938D01*
X27462Y-13900D01*
X27481Y-13881D01*
X27519Y-13862D01*
X27996Y-13995D02*
X27996Y-14262D01*
X27824Y-13995D02*
X27824Y-14205D01*
X27843Y-14243D01*
X27881Y-14262D01*
X27939Y-14262D01*
X27977Y-14243D01*
X27996Y-14224D01*
X28320Y-14052D02*
X28186Y-14052D01*
X28186Y-14262D02*
X28186Y-13862D01*
X28377Y-13862D01*
G54D11*
X24322Y-13364D02*
X24779Y-13364D01*
X27822Y-13364D02*
X28279Y-13364D01*
X28050Y-13593D02*
X28050Y-13136D01*
G54D12*
X14934Y-14224D02*
X14915Y-14243D01*
X14858Y-14262D01*
X14820Y-14262D01*
X14762Y-14243D01*
X14724Y-14205D01*
X14705Y-14167D01*
X14686Y-14090D01*
X14686Y-14033D01*
X14705Y-13957D01*
X14724Y-13919D01*
X14762Y-13881D01*
X14820Y-13862D01*
X14858Y-13862D01*
X14915Y-13881D01*
X14934Y-13900D01*
X15277Y-13995D02*
X15277Y-14262D01*
X15181Y-13843D02*
X15086Y-14129D01*
X15334Y-14129D01*
X16972Y-14262D02*
X16743Y-14262D01*
X16857Y-14262D02*
X16857Y-13862D01*
X16819Y-13919D01*
X16781Y-13957D01*
X16743Y-13976D01*
X17219Y-13862D02*
X17258Y-13862D01*
X17296Y-13881D01*
X17315Y-13900D01*
X17334Y-13938D01*
X17353Y-14014D01*
X17353Y-14110D01*
X17334Y-14186D01*
X17315Y-14224D01*
X17296Y-14243D01*
X17258Y-14262D01*
X17219Y-14262D01*
X17181Y-14243D01*
X17162Y-14224D01*
X17143Y-14186D01*
X17124Y-14110D01*
X17124Y-14014D01*
X17143Y-13938D01*
X17162Y-13900D01*
X17181Y-13881D01*
X17219Y-13862D01*
X17696Y-13995D02*
X17696Y-14262D01*
X17524Y-13995D02*
X17524Y-14205D01*
X17543Y-14243D01*
X17581Y-14262D01*
X17639Y-14262D01*
X17677Y-14243D01*
X17696Y-14224D01*
X18020Y-14052D02*
X17886Y-14052D01*
X17886Y-14262D02*
X17886Y-13862D01*
X18077Y-13862D01*
G54D11*
X14022Y-13364D02*
X14479Y-13364D01*
X17522Y-13364D02*
X17979Y-13364D01*
X17750Y-13593D02*
X17750Y-13136D01*
G54D12*
X25234Y-16424D02*
X25215Y-16443D01*
X25158Y-16462D01*
X25120Y-16462D01*
X25062Y-16443D01*
X25024Y-16405D01*
X25005Y-16367D01*
X24986Y-16290D01*
X24986Y-16233D01*
X25005Y-16157D01*
X25024Y-16119D01*
X25062Y-16081D01*
X25120Y-16062D01*
X25158Y-16062D01*
X25215Y-16081D01*
X25234Y-16100D01*
X25615Y-16462D02*
X25386Y-16462D01*
X25500Y-16462D02*
X25500Y-16062D01*
X25462Y-16119D01*
X25424Y-16157D01*
X25386Y-16176D01*
X26943Y-16062D02*
X26982Y-16062D01*
X27020Y-16081D01*
X27039Y-16100D01*
X27058Y-16138D01*
X27077Y-16214D01*
X27077Y-16310D01*
X27058Y-16386D01*
X27039Y-16424D01*
X27020Y-16443D01*
X26982Y-16462D01*
X26943Y-16462D01*
X26905Y-16443D01*
X26886Y-16424D01*
X26867Y-16386D01*
X26848Y-16310D01*
X26848Y-16214D01*
X26867Y-16138D01*
X26886Y-16100D01*
X26905Y-16081D01*
X26943Y-16062D01*
X27248Y-16424D02*
X27267Y-16443D01*
X27248Y-16462D01*
X27229Y-16443D01*
X27248Y-16424D01*
X27248Y-16462D01*
X27648Y-16462D02*
X27419Y-16462D01*
X27533Y-16462D02*
X27533Y-16062D01*
X27495Y-16119D01*
X27457Y-16157D01*
X27419Y-16176D01*
X27991Y-16195D02*
X27991Y-16462D01*
X27819Y-16195D02*
X27819Y-16405D01*
X27838Y-16443D01*
X27876Y-16462D01*
X27934Y-16462D01*
X27972Y-16443D01*
X27991Y-16424D01*
X28315Y-16252D02*
X28181Y-16252D01*
X28181Y-16462D02*
X28181Y-16062D01*
X28372Y-16062D01*
X14934Y-16424D02*
X14915Y-16443D01*
X14858Y-16462D01*
X14820Y-16462D01*
X14762Y-16443D01*
X14724Y-16405D01*
X14705Y-16367D01*
X14686Y-16290D01*
X14686Y-16233D01*
X14705Y-16157D01*
X14724Y-16119D01*
X14762Y-16081D01*
X14820Y-16062D01*
X14858Y-16062D01*
X14915Y-16081D01*
X14934Y-16100D01*
X15086Y-16100D02*
X15105Y-16081D01*
X15143Y-16062D01*
X15239Y-16062D01*
X15277Y-16081D01*
X15296Y-16100D01*
X15315Y-16138D01*
X15315Y-16176D01*
X15296Y-16233D01*
X15067Y-16462D01*
X15315Y-16462D01*
X16643Y-16062D02*
X16682Y-16062D01*
X16720Y-16081D01*
X16739Y-16100D01*
X16758Y-16138D01*
X16777Y-16214D01*
X16777Y-16310D01*
X16758Y-16386D01*
X16739Y-16424D01*
X16720Y-16443D01*
X16682Y-16462D01*
X16643Y-16462D01*
X16605Y-16443D01*
X16586Y-16424D01*
X16567Y-16386D01*
X16548Y-16310D01*
X16548Y-16214D01*
X16567Y-16138D01*
X16586Y-16100D01*
X16605Y-16081D01*
X16643Y-16062D01*
X16948Y-16424D02*
X16967Y-16443D01*
X16948Y-16462D01*
X16929Y-16443D01*
X16948Y-16424D01*
X16948Y-16462D01*
X17348Y-16462D02*
X17119Y-16462D01*
X17233Y-16462D02*
X17233Y-16062D01*
X17195Y-16119D01*
X17157Y-16157D01*
X17119Y-16176D01*
X17691Y-16195D02*
X17691Y-16462D01*
X17519Y-16195D02*
X17519Y-16405D01*
X17538Y-16443D01*
X17576Y-16462D01*
X17634Y-16462D01*
X17672Y-16443D01*
X17691Y-16424D01*
X18015Y-16252D02*
X17881Y-16252D01*
X17881Y-16462D02*
X17881Y-16062D01*
X18072Y-16062D01*
X26824Y-25566D02*
X26843Y-25585D01*
X26862Y-25642D01*
X26862Y-25680D01*
X26843Y-25738D01*
X26805Y-25776D01*
X26767Y-25795D01*
X26690Y-25814D01*
X26633Y-25814D01*
X26557Y-25795D01*
X26519Y-25776D01*
X26481Y-25738D01*
X26462Y-25680D01*
X26462Y-25642D01*
X26481Y-25585D01*
X26500Y-25566D01*
X26462Y-25204D02*
X26462Y-25395D01*
X26652Y-25414D01*
X26633Y-25395D01*
X26614Y-25357D01*
X26614Y-25261D01*
X26633Y-25223D01*
X26652Y-25204D01*
X26690Y-25185D01*
X26786Y-25185D01*
X26824Y-25204D01*
X26843Y-25223D01*
X26862Y-25261D01*
X26862Y-25357D01*
X26843Y-25395D01*
X26824Y-25414D01*
X26862Y-23238D02*
X26862Y-23467D01*
X26862Y-23353D02*
X26462Y-23353D01*
X26519Y-23391D01*
X26557Y-23429D01*
X26576Y-23467D01*
X26595Y-22895D02*
X26862Y-22895D01*
X26595Y-23067D02*
X26805Y-23067D01*
X26843Y-23048D01*
X26862Y-23010D01*
X26862Y-22952D01*
X26843Y-22914D01*
X26824Y-22895D01*
X26652Y-22571D02*
X26652Y-22705D01*
X26862Y-22705D02*
X26462Y-22705D01*
X26462Y-22514D01*
X16524Y-25566D02*
X16543Y-25585D01*
X16562Y-25642D01*
X16562Y-25680D01*
X16543Y-25738D01*
X16505Y-25776D01*
X16467Y-25795D01*
X16390Y-25814D01*
X16333Y-25814D01*
X16257Y-25795D01*
X16219Y-25776D01*
X16181Y-25738D01*
X16162Y-25680D01*
X16162Y-25642D01*
X16181Y-25585D01*
X16200Y-25566D01*
X16162Y-25223D02*
X16162Y-25300D01*
X16181Y-25338D01*
X16200Y-25357D01*
X16257Y-25395D01*
X16333Y-25414D01*
X16486Y-25414D01*
X16524Y-25395D01*
X16543Y-25376D01*
X16562Y-25338D01*
X16562Y-25261D01*
X16543Y-25223D01*
X16524Y-25204D01*
X16486Y-25185D01*
X16390Y-25185D01*
X16352Y-25204D01*
X16333Y-25223D01*
X16314Y-25261D01*
X16314Y-25338D01*
X16333Y-25376D01*
X16352Y-25395D01*
X16390Y-25414D01*
X16562Y-23238D02*
X16562Y-23467D01*
X16562Y-23353D02*
X16162Y-23353D01*
X16219Y-23391D01*
X16257Y-23429D01*
X16276Y-23467D01*
X16295Y-22895D02*
X16562Y-22895D01*
X16295Y-23067D02*
X16505Y-23067D01*
X16543Y-23048D01*
X16562Y-23010D01*
X16562Y-22952D01*
X16543Y-22914D01*
X16524Y-22895D01*
X16352Y-22571D02*
X16352Y-22705D01*
X16562Y-22705D02*
X16162Y-22705D01*
X16162Y-22514D01*
X24824Y-25566D02*
X24843Y-25585D01*
X24862Y-25642D01*
X24862Y-25680D01*
X24843Y-25738D01*
X24805Y-25776D01*
X24767Y-25795D01*
X24690Y-25814D01*
X24633Y-25814D01*
X24557Y-25795D01*
X24519Y-25776D01*
X24481Y-25738D01*
X24462Y-25680D01*
X24462Y-25642D01*
X24481Y-25585D01*
X24500Y-25566D01*
X24462Y-25433D02*
X24462Y-25166D01*
X24862Y-25338D01*
X24862Y-23238D02*
X24862Y-23467D01*
X24862Y-23353D02*
X24462Y-23353D01*
X24519Y-23391D01*
X24557Y-23429D01*
X24576Y-23467D01*
X24595Y-22895D02*
X24862Y-22895D01*
X24595Y-23067D02*
X24805Y-23067D01*
X24843Y-23048D01*
X24862Y-23010D01*
X24862Y-22952D01*
X24843Y-22914D01*
X24824Y-22895D01*
X24652Y-22571D02*
X24652Y-22705D01*
X24862Y-22705D02*
X24462Y-22705D01*
X24462Y-22514D01*
X14524Y-25566D02*
X14543Y-25585D01*
X14562Y-25642D01*
X14562Y-25680D01*
X14543Y-25738D01*
X14505Y-25776D01*
X14467Y-25795D01*
X14390Y-25814D01*
X14333Y-25814D01*
X14257Y-25795D01*
X14219Y-25776D01*
X14181Y-25738D01*
X14162Y-25680D01*
X14162Y-25642D01*
X14181Y-25585D01*
X14200Y-25566D01*
X14333Y-25338D02*
X14314Y-25376D01*
X14295Y-25395D01*
X14257Y-25414D01*
X14238Y-25414D01*
X14200Y-25395D01*
X14181Y-25376D01*
X14162Y-25338D01*
X14162Y-25261D01*
X14181Y-25223D01*
X14200Y-25204D01*
X14238Y-25185D01*
X14257Y-25185D01*
X14295Y-25204D01*
X14314Y-25223D01*
X14333Y-25261D01*
X14333Y-25338D01*
X14352Y-25376D01*
X14371Y-25395D01*
X14410Y-25414D01*
X14486Y-25414D01*
X14524Y-25395D01*
X14543Y-25376D01*
X14562Y-25338D01*
X14562Y-25261D01*
X14543Y-25223D01*
X14524Y-25204D01*
X14486Y-25185D01*
X14410Y-25185D01*
X14371Y-25204D01*
X14352Y-25223D01*
X14333Y-25261D01*
X14562Y-23238D02*
X14562Y-23467D01*
X14562Y-23353D02*
X14162Y-23353D01*
X14219Y-23391D01*
X14257Y-23429D01*
X14276Y-23467D01*
X14295Y-22895D02*
X14562Y-22895D01*
X14295Y-23067D02*
X14505Y-23067D01*
X14543Y-23048D01*
X14562Y-23010D01*
X14562Y-22952D01*
X14543Y-22914D01*
X14524Y-22895D01*
X14352Y-22571D02*
X14352Y-22705D01*
X14562Y-22705D02*
X14162Y-22705D01*
X14162Y-22514D01*
G54D11*
X35958Y-29643D02*
X35958Y-29043D01*
X36186Y-29043D01*
X36244Y-29071D01*
X36272Y-29100D01*
X36301Y-29157D01*
X36301Y-29243D01*
X36272Y-29300D01*
X36244Y-29329D01*
X36186Y-29357D01*
X35958Y-29357D01*
X36872Y-29643D02*
X36529Y-29643D01*
X36701Y-29643D02*
X36701Y-29043D01*
X36644Y-29129D01*
X36586Y-29186D01*
X36529Y-29214D01*
M02*
