G04 (created by PCBNEW-RS274X (2011-aug-04)-testing) date Mon 24 Sep 2012 11:43:35 AM PDT*
G01*
G70*
G90*
%MOIN*%
G04 Gerber Fmt 3.4, Leading zero omitted, Abs format*
%FSLAX34Y34*%
G04 APERTURE LIST*
%ADD10C,0.006000*%
%ADD11R,0.075000X0.075000*%
%ADD12C,0.075000*%
%ADD13O,0.080000X0.120000*%
%ADD14C,0.175000*%
%ADD15C,0.080000*%
G04 APERTURE END LIST*
G54D10*
G54D11*
X27400Y-18000D03*
G54D12*
X26400Y-18000D03*
X25400Y-18000D03*
X24400Y-18000D03*
X24400Y-21000D03*
X25400Y-21000D03*
X26400Y-21000D03*
X27400Y-21000D03*
G54D11*
X17100Y-18000D03*
G54D12*
X16100Y-18000D03*
X15100Y-18000D03*
X14100Y-18000D03*
X14100Y-21000D03*
X15100Y-21000D03*
X16100Y-21000D03*
X17100Y-21000D03*
X27400Y-13300D03*
X25400Y-13300D03*
X17100Y-13300D03*
X15100Y-13300D03*
X27400Y-15500D03*
X25400Y-15500D03*
X17100Y-15500D03*
X15100Y-15500D03*
X27400Y-23400D03*
X27400Y-25400D03*
X17100Y-23400D03*
X17100Y-25400D03*
X25400Y-23400D03*
X25400Y-25400D03*
X15100Y-23400D03*
X15100Y-25400D03*
G54D13*
X31500Y-29000D03*
X30500Y-29000D03*
X29500Y-29000D03*
X26500Y-29000D03*
X27500Y-29000D03*
X28500Y-29000D03*
X24500Y-29000D03*
X23500Y-29000D03*
X22500Y-29000D03*
X20500Y-29000D03*
X19500Y-29000D03*
X31500Y-10000D03*
X30500Y-10000D03*
X29500Y-10000D03*
X28500Y-10000D03*
X27500Y-10000D03*
X26500Y-10000D03*
X25500Y-10000D03*
X24500Y-10000D03*
X22900Y-10000D03*
X21900Y-10000D03*
X20900Y-10000D03*
X19900Y-10000D03*
X18900Y-10000D03*
X17900Y-10000D03*
X16900Y-10000D03*
X15900Y-10000D03*
X21500Y-29000D03*
G54D14*
X32500Y-27000D03*
X32500Y-16000D03*
X12500Y-10000D03*
X12000Y-29000D03*
G54D15*
X36101Y-27769D03*
X36100Y-26392D03*
X36099Y-25011D03*
X36100Y-23634D03*
X36100Y-22256D03*
X36100Y-20880D03*
X36100Y-19501D03*
X36099Y-18123D03*
X36099Y-16745D03*
X36099Y-15365D03*
X36098Y-12611D03*
X36099Y-13989D03*
X36099Y-11233D03*
M02*
