M48
;DRILL file {PCBnew (2011-aug-04)-testing} date Mon 24 Sep 2012 11:43:39 AM PDT
;FORMAT={2:4/ absolute / inch / suppress trailing zeros}
FMAT,2
INCH,LZ
T1C0.032
T2C0.035
T3C0.125
%
G90
G05
M72
T1
X0141Y-018
X0141Y-021
X0151Y-0133
X0151Y-0155
X0151Y-018
X0151Y-021
X0151Y-0234
X0151Y-0254
X0159Y-01
X0161Y-018
X0161Y-021
X0169Y-01
X0171Y-0133
X0171Y-0155
X0171Y-018
X0171Y-021
X0171Y-0234
X0171Y-0254
X0179Y-01
X0189Y-01
X0195Y-029
X0199Y-01
X0205Y-029
X0209Y-01
X0215Y-029
X0219Y-01
X0225Y-029
X0229Y-01
X0235Y-029
X0244Y-018
X0244Y-021
X0245Y-01
X0245Y-029
X0254Y-0133
X0254Y-0155
X0254Y-018
X0254Y-021
X0254Y-0234
X0254Y-0254
X0255Y-01
X0264Y-018
X0264Y-021
X0265Y-01
X0265Y-029
X0274Y-0133
X0274Y-0155
X0274Y-018
X0274Y-021
X0274Y-0234
X0274Y-0254
X0275Y-01
X0275Y-029
X0285Y-01
X0285Y-029
X0295Y-01
X0295Y-029
X0305Y-01
X0305Y-029
X0315Y-01
X0315Y-029
T2
X036098Y-012611
X036099Y-011233
X036099Y-013989
X036099Y-015365
X036099Y-016745
X036099Y-018123
X036099Y-025011
X0361Y-019501
X0361Y-02088
X0361Y-022256
X0361Y-023634
X0361Y-026392
X036101Y-027769
T3
X012Y-029
X0125Y-01
X0325Y-016
X0325Y-027
T0
M30
